<svg id="Layer_1" data-name="Layer 1" xmlns="http://www.w3.org/2000/svg" viewBox="0 0 119.05 39.27"><defs><style>.cls-1{fill:#a6a6a6;}.cls-2{fill:#fff;}</style></defs><title>Download_on_the_App_Store_Badge</title><rect width="119.05" height="39.27" rx="4.41"/><path class="cls-1" d="M115,1.07a3.7,3.7,0,0,1,3.7,3.7V35.23a3.7,3.7,0,0,1-3.7,3.7H4.71A3.7,3.7,0,0,1,1,35.23H1V4.77a3.7,3.7,0,0,1,3.7-3.7H115m0-.71H4.71A4.42,4.42,0,0,0,.3,4.77V35.23a4.42,4.42,0,0,0,4.41,4.41H115a4.42,4.42,0,0,0,4.41-4.41V4.77A4.42,4.42,0,0,0,115,.36Z" transform="translate(-0.3 -0.36)"/><path class="cls-2" d="M24.29,20.4a5,5,0,0,1,2.42-4.26,5.18,5.18,0,0,0-4.1-2.22c-1.73-.19-3.39,1-4.28,1s-2.24-1-3.7-1A5.43,5.43,0,0,0,10,16.72c-1.94,3.48-.5,8.5,1.4,11.31,1,1.37,2.05,2.89,3.52,2.83S16.91,30,18.63,30s2.2.91,3.69.88,2.48-1.37,3.41-2.75a11.7,11.7,0,0,0,1.56-3.17,4.88,4.88,0,0,1-3-4.51" transform="translate(-0.3 -0.36)"/><path class="cls-2" d="M21.45,12.09a5.05,5.05,0,0,0,1.13-3.58,5.09,5.09,0,0,0-3.29,1.7,4.78,4.78,0,0,0-1.17,3.45,4.22,4.22,0,0,0,3.33-1.57" transform="translate(-0.3 -0.36)"/><path class="cls-2" d="M42.28,27.42H37.43l-1.17,3.45h-2L38.8,18.12H41l4.6,12.75h-2l-1.22-3.45m-4.35-1.59h3.85l-1.86-5.6h-.05Z" transform="translate(-0.3 -0.36)"/><path class="cls-2" d="M55.49,26.25c0,2.88-1.55,4.74-3.88,4.74a3.17,3.17,0,0,1-2.93-1.66h0v4.6h-2V21.61h1.85v1.56h0a3.31,3.31,0,0,1,3-1.65c2.37,0,3.92,1.86,3.92,4.75m-2,0c0-1.88-1-3.08-2.46-3.08s-2.44,1.26-2.44,3.08,1,3.13,2.44,3.13,2.49-1.28,2.49-3.15Z" transform="translate(-0.3 -0.36)"/><path class="cls-2" d="M65.71,26.25c0,2.88-1.54,4.74-3.87,4.74a3.16,3.16,0,0,1-2.92-1.66h0v4.6H57V21.61h1.85v1.56h0a3.33,3.33,0,0,1,3-1.65c2.36,0,3.91,1.86,3.91,4.75m-2,0c0-1.88-1-3.08-2.45-3.08s-2.44,1.26-2.44,3.08,1,3.06,2.47,3.06,2.45-1.21,2.45-3.08Z" transform="translate(-0.3 -0.36)"/><path class="cls-2" d="M72.48,27.27c.14,1.27,1.36,2.06,3.08,2.06s2.76-.84,2.76-2-.7-1.59-2.35-2L74.31,25C72,24.4,70.9,23.31,70.9,21.53c0-2.2,1.9-3.71,4.63-3.71s4.54,1.51,4.6,3.71h-2c-.11-1.27-1.17-2.05-2.7-2.05s-2.58.77-2.58,1.91c0,.89.66,1.43,2.31,1.84l1.4.34c2.62.62,3.71,1.67,3.71,3.54,0,2.38-1.9,3.87-4.93,3.87-2.82,0-4.73-1.46-4.85-3.76h2" transform="translate(-0.3 -0.36)"/><path class="cls-2" d="M84.43,19.37v2.2h1.76v1.5H84.43v5.14c0,.8.34,1.17,1.12,1.17q.32,0,.63,0v1.5a5.89,5.89,0,0,1-1,.09c-1.88,0-2.61-.71-2.61-2.52V23.07H81.15v-1.5h1.36v-2.2h1.92" transform="translate(-0.3 -0.36)"/><path class="cls-2" d="M87.22,26.25c0-2.93,1.71-4.77,4.4-4.77S96,23.32,96,26.25,94.33,31,91.62,31s-4.4-1.83-4.4-4.73m6.87,0c0-2-.93-3.2-2.47-3.2s-2.42,1.14-2.42,3.2.91,3.19,2.46,3.19S94.09,28.23,94.09,26.25Z" transform="translate(-0.3 -0.36)"/><path class="cls-2" d="M97.61,21.57h1.86v1.6h0a2.21,2.21,0,0,1,2.23-1.68,2.48,2.48,0,0,1,.66.08v1.78a2.43,2.43,0,0,0-.84-.18A1.93,1.93,0,0,0,99.45,25a1.76,1.76,0,0,0,0,.4v5.52H97.61v-9.3" transform="translate(-0.3 -0.36)"/><path class="cls-2" d="M111.15,28.14c-.26,1.68-1.9,2.84-4,2.84-2.71,0-4.38-1.82-4.38-4.72s1.68-4.81,4.3-4.81,4.19,1.77,4.19,4.59v.65h-6.57v.12a2.42,2.42,0,0,0,2.21,2.62h.3a2.09,2.09,0,0,0,2.14-1.3h1.81m-6.45-2.78h4.65A2.23,2.23,0,0,0,107.24,23h-.17a2.37,2.37,0,0,0-2.37,2.35Z" transform="translate(-0.3 -0.36)"/><path class="cls-2" d="M37.7,8.52a2.71,2.71,0,0,1,2.87,3.08c0,2-1,3.08-2.87,3.08H35.48V8.52H37.7m-1.27,5.25h1.15A1.91,1.91,0,0,0,39.65,12a2.06,2.06,0,0,0,0-.43A1.94,1.94,0,0,0,38,9.39a2,2,0,0,0-.42,0H36.43Z" transform="translate(-0.3 -0.36)"/><path class="cls-2" d="M41.65,12.33A2.19,2.19,0,0,1,46,12a1.5,1.5,0,0,1,0,.3,2.19,2.19,0,0,1-4.36.3,1.5,1.5,0,0,1,0-.3m3.42,0c0-1-.44-1.58-1.24-1.58s-1.24.58-1.24,1.58.41,1.6,1.24,1.6,1.23-.6,1.23-1.6Z" transform="translate(-0.3 -0.36)"/><polyline class="cls-2" points="51.5 14.28 50.55 14.28 49.6 10.88 49.53 10.88 48.57 14.28 47.64 14.28 46.36 9.66 47.29 9.66 48.12 13.19 48.18 13.19 49.14 9.66 50.01 9.66 50.96 13.19 51.03 13.19 51.86 9.66 52.77 9.66 51.5 14.28"/><path class="cls-2" d="M54.14,10H55v.74h.08a1.35,1.35,0,0,1,1.37-.83,1.51,1.51,0,0,1,1.62,1.38,1.94,1.94,0,0,1,0,.34v3h-.91V11.87c0-.74-.33-1.11-1-1.11a1,1,0,0,0-1.11.93,1,1,0,0,0,0,.24v2.72h-.91V10" transform="translate(-0.3 -0.36)"/><rect class="cls-2" x="59.22" y="7.86" width="0.91" height="6.43"/><path class="cls-2" d="M61.71,12.33a2.19,2.19,0,0,1,4.35-.43,3.09,3.09,0,0,1,0,.43,2.19,2.19,0,0,1-4.35.42,1.48,1.48,0,0,1,0-.42m3.42,0c0-1-.46-1.58-1.25-1.58s-1.23.58-1.23,1.58.44,1.6,1.23,1.6S65.13,13.33,65.13,12.33Z" transform="translate(-0.3 -0.36)"/><path class="cls-2" d="M67,13.33c0-.83.61-1.3,1.72-1.37L70,11.87v-.4c0-.48-.32-.76-.94-.76s-.86.19-1,.52H67.2c.1-.8.84-1.31,1.9-1.31s1.81.58,1.81,1.55v3.18H70V14H70a1.55,1.55,0,0,1-1.38.72A1.4,1.4,0,0,1,67,13.47v-.14m3-.43v-.39l-1.12.07c-.63,0-.93.27-.93.67s.37.66.86.66A1.09,1.09,0,0,0,70,13Z" transform="translate(-0.3 -0.36)"/><path class="cls-2" d="M72.11,12.33c0-1.46.75-2.39,1.92-2.39a1.51,1.51,0,0,1,1.41.82h.08V8.22h.9v6.43h-.87v-.72h-.08a1.6,1.6,0,0,1-1.44.8c-1.18,0-1.92-.93-1.92-2.39m.94,0c0,1,.46,1.57,1.23,1.57s1.25-.6,1.25-1.56-.49-1.57-1.25-1.57-1.23.58-1.23,1.55Z" transform="translate(-0.3 -0.36)"/><path class="cls-2" d="M80.2,12.33a2.19,2.19,0,1,1,4.36-.3,1.5,1.5,0,0,1,0,.3,2.19,2.19,0,0,1-4.36.3,1.5,1.5,0,0,1,0-.3m3.41,0c0-1-.45-1.58-1.23-1.58s-1.24.58-1.24,1.58.44,1.6,1.24,1.6S83.61,13.33,83.61,12.33Z" transform="translate(-0.3 -0.36)"/><path class="cls-2" d="M85.78,10h.88v.74h.07a1.38,1.38,0,0,1,1.37-.83,1.49,1.49,0,0,1,1.61,1.38,1.29,1.29,0,0,1,0,.34v3h-.9V11.87c0-.74-.33-1.11-1-1.11a1,1,0,0,0-1.1.94.88.88,0,0,0,0,.23v2.72h-.91V10" transform="translate(-0.3 -0.36)"/><path class="cls-2" d="M94.86,8.87v1.18h1v.8h-1v2.38c0,.48.2.7.65.7h.35v.76h-.49c-1,0-1.42-.35-1.42-1.24v-2.6h-.74v-.76H94V8.87h.91" transform="translate(-0.3 -0.36)"/><path class="cls-2" d="M97.11,8.22H98v2.55h.07a1.43,1.43,0,0,1,1.38-.84,1.53,1.53,0,0,1,1.6,1.44c0,.09,0,.19,0,.29v3h-.92V11.87c0-.73-.34-1.1-1-1.1a1.08,1.08,0,0,0-1.17,1,.48.48,0,0,0,0,.17v2.71H97V8.22" transform="translate(-0.3 -0.36)"/><path class="cls-2" d="M106.4,13.39a1.86,1.86,0,0,1-2.05,1.34,2.06,2.06,0,0,1-2.16-1.94,1.6,1.6,0,0,1,0-.44,2.14,2.14,0,0,1,1.84-2.4l.29,0c1.28,0,2.05.88,2.05,2.33v.32h-3.26v.05a1.22,1.22,0,0,0,1.12,1.3h.16a1.12,1.12,0,0,0,1.11-.57h.87m-3.2-1.49h2.33a1.11,1.11,0,0,0-1-1.19h-.11a1.18,1.18,0,0,0-1.19,1.15Z" transform="translate(-0.3 -0.36)"/></svg>