<svg xmlns="http://www.w3.org/2000/svg" viewBox="0 0 83.2 40.69"><defs><style>.cls-1{fill:none;stroke:#fff;stroke-miterlimit:10;}.cls-2{fill:#fff;}</style></defs><g id="Layer_2" data-name="Layer 2"><g id="Layer_1-2" data-name="Layer 1"><rect class="cls-1" x="0.5" y="0.5" width="82.2" height="39.69" rx="4.24"/><path class="cls-2" d="M25.25,17.06V16.2c0-.14.05-.2.19-.2h.7c.15,0,.2.06.2.2v7.1c0,.8.3,1.06,1,1.06h1c.54,0,.8.12.8.58s-.24.54-.8.54H27.25c-1,0-2-.28-2-1.72a3,3,0,0,1-2.33.78c-2,0-3.28-1.12-3.28-3.54,0-2.88,1.52-3.94,3.66-3.94Zm0,4.2V18.18H23.1c-1.44,0-2.34.72-2.34,2.82,0,1.7.78,2.42,2.24,2.42C24.7,23.42,25.25,22.62,25.25,21.26Zm-3.93-6.6c-.14,0-.2-.06-.2-.2v-1.2c0-.14.06-.2.2-.2h1c.14,0,.2.06.2.2v1.2c0,.14-.06.2-.2.2Zm2.56,0c-.14,0-.2-.06-.2-.2v-1.2c0-.14.06-.2.2-.2h1.05a.18.18,0,0,1,.2.2v1.2a.18.18,0,0,1-.2.2Z"/><path class="cls-2" d="M32,22.86c0,1,.74,1.5,1.94,1.5h.12c.54,0,.8.12.8.54s-.22.58-.8.58c-1.12,0-1.94-.16-2.32-1.06a1.76,1.76,0,0,1-1.8,1.06H28.32c-.5,0-.72-.12-.72-.54s.18-.58.72-.58h1.5c1,0,1.08-.54,1.08-1.68V17.62c0-.14.06-.2.2-.2h.7c.14,0,.2.06.2.2Zm-2.64,5.9c-.14,0-.2-.06-.2-.2v-1.2c0-.14.06-.2.2-.2h1c.14,0,.2.06.2.2v1.2c0,.14-.06.2-.2.2Zm2.56,0c-.14,0-.2-.06-.2-.2v-1.2c0-.14.06-.2.2-.2h1c.14,0,.2.06.2.2v1.2c0,.14-.06.2-.2.2Z"/><path class="cls-2" d="M34.06,25.48c-.54,0-.8-.08-.8-.54s.24-.58.8-.58h1.46c.66,0,1-.28,1-1.06V17.62c0-.14.06-.2.2-.2h.7c.14,0,.2.06.2.2V23c0,1.72-.44,2.52-2.34,2.52Zm2,3.2c-.14,0-.2-.06-.2-.2v-1.2c0-.14.06-.2.2-.2h1c.14,0,.2.06.2.2v1.2c0,.14-.06.2-.2.2Z"/><path class="cls-2" d="M42.58,22.86c0,1,.74,1.5,1.94,1.5h.1c.54,0,.81.12.81.5,0,.62-.25.62-.81.62a2.46,2.46,0,0,1-2-.62v1.6c0,1.92-.9,2.94-2.9,2.94h-.34c-.14,0-.2-.06-.2-.2v-.72c0-.14.06-.2.2-.2h.46a1.49,1.49,0,0,0,1.68-1.7v-9c0-.14.06-.2.2-.2h.7c.14,0,.2.06.2.2Z"/><path class="cls-2" d="M53.83,20.18a5.37,5.37,0,0,1-2.49,4.12,1.88,1.88,0,0,0,.59.06h3.22c.7,0,.84.24.84.56s-.22.56-.84.56H52.51a4.72,4.72,0,0,1-2.59-.58,5.19,5.19,0,0,1-2.74.58H44.62c-.58,0-.82-.08-.82-.56s.16-.56.82-.56h2.82A4.42,4.42,0,0,0,49.3,24a6.31,6.31,0,0,0-3-4.24c-.18-.12-.26-.2-.26-.26V18.46c0-.48,1.62-1.4,3.88-1.4C52.64,17.06,53.83,18.18,53.83,20.18Zm-1.2,0c0-1.42-1.25-2-2.73-2a5.81,5.81,0,0,0-2.82.72,7,7,0,0,1,3.26,4.78A4.38,4.38,0,0,0,52.63,20.16Z"/><path class="cls-2" d="M55.14,25.48c-.54,0-.8-.08-.8-.54s.24-.58.8-.58H56.6c.66,0,1-.28,1-1.06V12.08c0-.14.06-.2.2-.2h.7c.14,0,.2.06.2.2V23c0,1.72-.44,2.52-2.34,2.52Z"/><path class="cls-2" d="M62.84,25.28c0,.14-.06.2-.2.2h-.7c-.14,0-.2-.06-.2-.2V12.08c0-.14.06-.2.2-.2h.7c.14,0,.2.06.2.2Z"/></g></g></svg>