<svg xmlns="http://www.w3.org/2000/svg" viewBox="0 0 100.21 40.69"><defs><style>.cls-1{fill:none;}.cls-1,.cls-2{stroke:#fff;stroke-miterlimit:10;}.cls-2{fill:#fff;stroke-width:0.5px;}</style></defs><g id="Layer_2" data-name="Layer 2"><g id="Layer_1-2" data-name="Layer 1"><rect class="cls-1" x="0.5" y="0.5" width="99.21" height="39.69" rx="4.24"/><path class="cls-2" d="M22,14.62v.76H15.26v5.15h5.58v.75H15.26v5.31H22v.76H14.34V14.62Z"/><path class="cls-2" d="M25.62,14.65a.48.48,0,0,1,.16.14l8.24,11a4.67,4.67,0,0,1,0-.52V14.62h.81V27.35h-.44a.38.38,0,0,1-.33-.18l-8.28-11a4.63,4.63,0,0,1,0,.51V27.35H25V14.62h.45A.53.53,0,0,1,25.62,14.65Z"/><path class="cls-2" d="M44.05,26.75a8.82,8.82,0,0,0,1.2-.07,6,6,0,0,0,1-.2,6.63,6.63,0,0,0,.88-.33,8.46,8.46,0,0,0,.84-.44V22.28H45.53a.25.25,0,0,1-.17-.06.2.2,0,0,1-.06-.14v-.51h3.52V26.1a8.33,8.33,0,0,1-1,.59,6.64,6.64,0,0,1-1.1.44,7.78,7.78,0,0,1-1.26.27,11.12,11.12,0,0,1-1.48.1A6.53,6.53,0,0,1,41.48,27a5.63,5.63,0,0,1-2-1.31,6,6,0,0,1-1.26-2.06,8.21,8.21,0,0,1,0-5.36,5.75,5.75,0,0,1,1.28-2.05,5.56,5.56,0,0,1,2-1.31,7.19,7.19,0,0,1,2.65-.47,9.25,9.25,0,0,1,1.34.1,7.15,7.15,0,0,1,1.15.29,5,5,0,0,1,1,.48,6.88,6.88,0,0,1,.88.65l-.24.4a.24.24,0,0,1-.22.13.41.41,0,0,1-.16,0,2.12,2.12,0,0,1-.39-.25,4,4,0,0,0-.69-.42,5.81,5.81,0,0,0-1.1-.38,6,6,0,0,0-1.59-.18,6.12,6.12,0,0,0-2.24.4,4.67,4.67,0,0,0-1.71,1.14,5,5,0,0,0-1.08,1.79A6.93,6.93,0,0,0,38.75,21a7,7,0,0,0,.39,2.42,5.25,5.25,0,0,0,1.08,1.81,4.64,4.64,0,0,0,1.68,1.14A5.56,5.56,0,0,0,44.05,26.75Z"/><path class="cls-2" d="M53,26.57h6v.78h-7V14.62H53Z"/><path class="cls-2" d="M62.52,27.35h-.93V14.62h.93Z"/><path class="cls-2" d="M72.81,16.17a.25.25,0,0,1-.23.15.57.57,0,0,1-.31-.17,4.34,4.34,0,0,0-.5-.37,3.9,3.9,0,0,0-.79-.37,3.53,3.53,0,0,0-1.17-.17,3.29,3.29,0,0,0-1.22.2,2.56,2.56,0,0,0-.89.54,2.41,2.41,0,0,0-.54.79,2.5,2.5,0,0,0-.18.94,2,2,0,0,0,.27,1.07,2.28,2.28,0,0,0,.73.72,4.4,4.4,0,0,0,1,.5c.38.14.77.27,1.18.4s.79.28,1.17.44a4.35,4.35,0,0,1,1,.6,2.62,2.62,0,0,1,.72.89,2.81,2.81,0,0,1,.28,1.3,4.18,4.18,0,0,1-.28,1.51,3.49,3.49,0,0,1-.8,1.23,3.62,3.62,0,0,1-1.27.82,4.68,4.68,0,0,1-1.73.31,4.86,4.86,0,0,1-2.17-.45,5,5,0,0,1-1.59-1.22l.25-.4A.31.31,0,0,1,66,25.3a.42.42,0,0,1,.21.11l.3.26c.13.11.27.22.44.34a3.56,3.56,0,0,0,.58.35,4.62,4.62,0,0,0,.77.26,4.2,4.2,0,0,0,1,.11,3.74,3.74,0,0,0,1.35-.23,2.92,2.92,0,0,0,1-.62,2.7,2.7,0,0,0,.62-.94,3.08,3.08,0,0,0,.22-1.17,2.07,2.07,0,0,0-.27-1.11,2.42,2.42,0,0,0-.73-.73,4.38,4.38,0,0,0-1-.49l-1.18-.39c-.4-.12-.79-.27-1.17-.42a4.16,4.16,0,0,1-1-.6,2.69,2.69,0,0,1-.72-.91,2.92,2.92,0,0,1-.28-1.36,3.12,3.12,0,0,1,.25-1.24,2.92,2.92,0,0,1,.71-1,3.33,3.33,0,0,1,1.16-.73,4.07,4.07,0,0,1,1.57-.28,4.78,4.78,0,0,1,1.78.32,4.43,4.43,0,0,1,1.44,1Z"/><path class="cls-2" d="M85.88,27.35H85v-6.1H77v6.1h-.93V14.62H77v5.94h8V14.62h.93Z"/></g></g></svg>