<svg xmlns="http://www.w3.org/2000/svg" xmlns:xlink="http://www.w3.org/1999/xlink" version="1.1" style="enable-background:new 0 0 322 140;" xml:space="preserve" width="211" height="73"><rect id="backgroundrect" width="100%" height="100%" x="0" y="0" fill="none" stroke="none"/>
<style type="text/css">
	.st0{fill:#FFFFFF;}
</style>


<g class="currentLayer" style=""><title>Layer 1</title><g id="svg_1" class="">
	<path class="st0" d="M149.40001373291017,41.13441619873046 c0.1,-0.1 0.1,-0.2 0,-0.2 c-0.4,-0.30000000000000004 -1.3,-1.3 -1.6,-1.6 c-0.1,-0.1 -0.1,-0.1 -0.2,0 c-0.30000000000000004,0.4 -1.3,1.3 -1.6,1.6 c0,0.1 0,0.2 0,0.2 c0.30000000000000004,0.30000000000000004 1.3,1.3 1.6,1.6 c0.1,0.1 0.2,0.1 0.2,0 h0 C148.10001373291016,42.334416198730466 149.00001373291016,41.434416198730474 149.40001373291017,41.13441619873046 " id="svg_2"/>
	<path class="st0" d="M33.30001373291016,30.934416198730474 c0,0 0.1,-0.1 0.2,-0.1 c0.1,0 0,0.2 0,0.2 c-0.2,1.4 -0.8,6.3 -1.2,12.7 c0,1 -0.1,2.1 -0.1,3.2 l0,0.4 l0.2,-0.30000000000000004 c0.9,-1.2 2.4,-1.8 4.3,-1.8 c1.2,0 4,0.4 4.6,3.9 c0.2,1.3 -0.1,4.2 -2.7,6.3 c-0.8,0.6000000000000001 -3,1.7000000000000002 -5.5,1.7000000000000002 c-2.1,0 -4.3,-0.1 -5.6,-1.2 c-0.8,-0.6000000000000001 -1.4,-1.5 -1.6,-4 c0,-0.2 0,-0.4 0,-0.7000000000000001 c0,-0.30000000000000004 0,-0.4 0,-0.7000000000000001 c0,-0.1 0,-0.2 0.1,-0.2 c0,0 0.1,0.1 0.1,0.2 c0,0.1 0.1,0.30000000000000004 0.2,0.4 c1.2,2.3 5.2,2.6 6.6,2.6 c2.8,0 4,-0.9 4.9,-2.1 c0.5,-0.7000000000000001 0.7000000000000001,-1.6 0.5,-2.3 c-0.2,-1.1 -1.1,-1.7000000000000002 -2.5,-1.7000000000000002 c-2,0 -3.6,1.6 -3.6,3.8 l0,0.30000000000000004 l0,0.6000000000000001 c0,0.2 0,0.2 -0.1,0.2 c-0.1,0 -0.1,0 -0.2,-0.1 l-2.5,-1.5 c-0.1,0 -0.2,-0.1 -0.30000000000000004,-0.2 c-0.1,-0.1 -0.1,-0.2 -0.1,-0.4 c0,-2.2 0.1,-4.8 0.1,-6.4 c0.2,-3.2 0.4,-6.4 0.8,-9.4 c0,-0.2 0.1,-0.4 0.1,-0.5 c0.1,-0.1 0.2,-0.30000000000000004 0.30000000000000004,-0.4 C30.400013732910153,33.434416198730474 33.30001373291016,30.934416198730474 33.30001373291016,30.934416198730474 " id="svg_3"/>
	<path class="st0" d="M144.20001373291015,46.63441619873046 c0.6000000000000001,-0.5 2.3,-2 3,-2.5 c0.1,-0.1 0.1,-0.1 0.2,-0.1 c0,0 0,0.1 0,0.30000000000000004 c-0.1,2.3 -0.2,4.6 -0.2,6.9 v0.30000000000000004 v2 c0.1,1 0.2,1.6 0.5,1.9 c0.30000000000000004,0.30000000000000004 1,0.6000000000000001 2.3,0.4 l0.2,0 c0.1,0 0.2,0 0.2,0 c0,0.1 -0.2,0.2 -0.30000000000000004,0.2 l0,0 c-1,0.5 -1.9,0.8 -2.7,0.8 l-0.4,0 c-0.7000000000000001,0 -1.5,-0.4 -2,-0.9 l-0.2,-0.2 c-0.1,-0.1 -0.2,-0.2 -0.2,-0.30000000000000004 c-0.4,-0.5 -0.6000000000000001,-1 -0.6000000000000001,-1.8 c0,-0.8 0,-5.2 0,-6.5 c0,-0.1 0,-0.2 0,-0.30000000000000004 C144.20001373291015,46.73441619873047 144.20001373291015,46.73441619873047 144.20001373291015,46.63441619873046 " id="svg_4"/>
	<path class="st0" d="M117.80001373291014,53.53441619873047 c-0.8,0.6000000000000001 -1.7000000000000002,0.8 -2.7,0.7000000000000001 c-1.2,-0.2 -1.8,-0.6000000000000001 -1.8,-1.3 c0,-0.7000000000000001 0.6000000000000001,-1.1 1.6,-1.2 c0.8,-0.1 1.7000000000000002,0.5 2.9,1.6 l0.1,0.1 L117.80001373291014,53.53441619873047 zM142.70001373291015,49.13441619873046 c-0.6000000000000001,-3.6 -3.4,-3.9 -4.6,-3.9 c-1.8,0 -3.4,0.7000000000000001 -4.3,1.8 l-0.2,0.30000000000000004 l0,-0.4 c0,-1 0.1,-2.1 0.1,-3.2 c0.30000000000000004,-6.4 1,-11.3 1.2,-12.7 c0,0 0,-0.2 0,-0.2 c-0.1,-0.1 -0.2,0.1 -0.2,0.1 c0,0 -3,2.5 -3,2.5 c-0.1,0.1 -0.30000000000000004,0.30000000000000004 -0.30000000000000004,0.4 c-0.1,0.1 -0.1,0.30000000000000004 -0.1,0.5 c-0.4,3.1 -0.6000000000000001,6.2 -0.8,9.4 c-0.1,1.6 -0.1,4.2 -0.2,6.4 c0,0.2 0,0.30000000000000004 0.1,0.4 c0.1,0.1 0.2,0.2 0.30000000000000004,0.2 l2.6,1.5 c0.1,0 0.2,0.1 0.2,0.1 c0.1,0 0.1,-0.1 0.1,-0.2 v-0.6000000000000001 l0,-0.30000000000000004 c0,-2.1 1.6,-3.8 3.6,-3.8 c1.4,0 2.3,0.6000000000000001 2.5,1.7000000000000002 c0.1,0.8 0,1.6 -0.5,2.3 c-0.9,1.2 -2,2.1 -4.9,2.1 c-1.3,0 -5.4,-0.30000000000000004 -6.6,-2.6 c-0.1,-0.1 -0.1,-0.2 -0.2,-0.30000000000000004 c0,-0.1 -0.1,-0.2 -0.2,-0.30000000000000004 c-0.1,0 -0.1,0.1 -0.1,0.2 c0,0.1 -0.1,0.2 -0.1,0.30000000000000004 c-0.1,0.7000000000000001 -0.4,1.6 -0.9,2 c-0.5,0.5 -1.8,0.5 -2.7,0.4 c-0.4,-0.1 -1.3,-0.2 -2.1,-0.5 l-0.1,0 l0.1,-0.1 c0.8,-2 0.9,-4.3 0.1,-5.6 c-0.7000000000000001,-1.2 -2.1,-2.1 -3.6,-2.2 c-1.5,-0.2 -3.6,0.1 -4.7,1 c-0.6000000000000001,0.4 -0.8,1.6 -0.9,2.3 c0,0.2 0,0.30000000000000004 0,0.30000000000000004 c0,0 0.1,-0.1 0.30000000000000004,-0.2 c0.5,-0.4 1.4,-1 2.4,-1.2 c1.2,-0.2 2.2,0 2.7,0.30000000000000004 c1.3,0.7000000000000001 1.5,1.9 1.6,2.3 c0.1,0.4 0,0.8 -0.1,1.2 l0,0.2 l-0.2,-0.1 c-1.7000000000000002,-1.6 -2.7,-2 -4.2,-1.8 c-0.7000000000000001,0.1 -1.5,0.5 -2.2,1.3 c-0.4,0.30000000000000004 -1.3,1.7000000000000002 -2.2,2 c-1.8,0.7000000000000001 -9.5,0.4 -10.6,-0.30000000000000004 c-0.7000000000000001,-0.4 -0.6000000000000001,-1.4 -0.5,-1.8 v0 c0,-0.2 0.1,-2.4 0.2,-3.5 c0,-0.8 -0.1,-1.4 -0.4,-1.8 c-0.4,-0.30000000000000004 -0.9,-0.5 -1.3,-0.5 c-0.4,0 -1,0.1 -1.7000000000000002,0.8 c-2.3,2 -3.3,3.4 -3.7,4.1 c-0.1,0.1 -0.1,0.2 -0.2,0.2 c-0.1,0 -0.1,-0.1 -0.1,-0.2 c0,-1.6 0.2,-6.1 0.2,-6.3 c0.30000000000000004,-6.4 1,-11.4 1.2,-12.7 l0,0 c0,-0.1 0,-0.2 0,-0.2 c-0.1,0 -0.2,0 -0.2,0 c0,0 -3,2.6 -3,2.6 c-0.1,0.1 -0.30000000000000004,0.30000000000000004 -0.30000000000000004,0.4 c-0.1,0.1 -0.1,0.30000000000000004 -0.1,0.5 l0,0.1 c-0.30000000000000004,2.3 -0.6000000000000001,5.5 -0.8,9.3 c-0.2,6.1 -0.2,9.1 -0.1,12.2 c0,0.8 0.4,1 0.7000000000000001,1.1 c0.1,0 0.8,0.2 1.1,-0.4 c1.7000000000000002,-3.3 3.1,-5.2 5.5,-7.6 c0.1,-0.1 0.2,-0.2 0.4,-0.2 c0.2,0 0.2,0.2 0.2,0.4 l-0.1,1 c0,0.4 -0.1,0.8 -0.1,1.8 c0,1 0.1,3.3 1.6,4.2 c1.6,0.9 9.7,0.7000000000000001 9.7,0.7000000000000001 c2.6,0 3,-0.5 3.5,-1.1 c0.2,-0.30000000000000004 0.4,-0.6000000000000001 0.5,-1 c0.5,1.3 1.8,1.9 1.9,1.9 c0,0 0.7000000000000001,0.30000000000000004 1.9,0.30000000000000004 c0.9,0 1.9,-0.2 2.8,-0.7000000000000001 c0.30000000000000004,-0.1 0.7000000000000001,-0.4 1.1,-0.8 l0.1,-0.1 l0.1,0.1 c0.30000000000000004,0.30000000000000004 0.8,0.6000000000000001 1.2,0.8 c1.2,0.7000000000000001 3.6,0.6000000000000001 3.6,0.6000000000000001 c2.3,-0.1 3.1,-1.1 3.2,-1.7000000000000002 c0,-0.1 0.1,-0.30000000000000004 0.1,-0.5 c0.30000000000000004,0.6000000000000001 0.6000000000000001,1.1 1,1.4 c1.4,1.1 3.5,1.3 5.7,1.2 c2.5,0 4.7,-1.1 5.5,-1.7000000000000002 C142.60001373291016,53.23441619873047 142.90001373291017,50.334416198730466 142.70001373291015,49.13441619873046 " id="svg_5"/>
	<path class="st0" d="M84.80001373291014,37.434416198730474 c-1.2,-1.9 -3,-3.2 -5.4,-4.2 c-1.2,-0.5 -2.6,-0.7000000000000001 -4.5,-0.7000000000000001 c0,0 -2.1,0 -3.3,-0.1 c-0.7000000000000001,-0.1 -1.2,-0.30000000000000004 -1.5,-0.5 c-0.2,-0.1 -0.2,-0.30000000000000004 -0.4,-0.30000000000000004 c-0.1,0 -0.1,0.4 -0.2,0.7000000000000001 c-0.2,2.1 -0.7000000000000001,9.2 -0.8,10.9 c-0.1,1.6 -0.1,4.2 -0.1,6.4 c0,0.2 0,0.30000000000000004 0.1,0.4 c0.1,0.1 0.2,0.2 0.30000000000000004,0.2 l2.6,1.5 c0.1,0 0.2,0.1 0.2,0.1 c0.1,0 0.1,-0.1 0.1,-0.30000000000000004 v-0.6000000000000001 l0,-0.30000000000000004 l0,-3.8 l0,-0.5 c0,-1 0.1,-2.2 0.1,-3.1 c0.1,-1.6 0.2,-3.2 0.30000000000000004,-4.8 h0 c0,-0.4 0.1,-1.1 0.4,-1.5 c0.4,-0.6000000000000001 0.9,-0.8 1.3,-0.9 c0.5,-0.1 1.8,-0.30000000000000004 3.8,0.5 c1.5,0.6000000000000001 2.9,1.6 3.6,2.7 c0.6000000000000001,0.8 1.1,1.9 1.2,2.8 c0.2,1.3 0.30000000000000004,4.2 -0.9,6.7 c-1.1,2.1 -2.9,3.4 -5.3,4.1 c-0.8,0.2 -1.9,0.30000000000000004 -3.3,0.4 c-1.4,0 -6.7,-0.7000000000000001 -7.8,-3.4 c-0.1,-0.30000000000000004 -0.1,-0.4 -0.30000000000000004,-0.4 c-0.1,0 -0.2,0.2 -0.2,0.4 c-0.1,0.7000000000000001 -0.30000000000000004,1.5 -0.6000000000000001,1.8 c-0.30000000000000004,0.5 -0.7000000000000001,1.6 -4.7,1.5 c-2.8,-0.1 -4,-0.1 -5.1,-0.7000000000000001 c-0.5,-0.30000000000000004 -0.5,-0.9 -0.5,-1.3 c0,-0.2 0.30000000000000004,-5.5 0.30000000000000004,-6.1 c0,-0.2 0,-0.4 -0.1,-0.4 c-0.1,0 -0.2,0.1 -0.30000000000000004,0.2 c-0.5,0.4 -1.4,1.2 -2,1.7000000000000002 c-0.2,0.2 -0.30000000000000004,0.30000000000000004 -0.4,0.4 c-0.1,0.1 -0.1,0.30000000000000004 -0.1,0.5 c-0.1,1.7000000000000002 -0.30000000000000004,5.3 -0.30000000000000004,5.3 l0,0 c-0.5,0.4 -1.7000000000000002,0.6000000000000001 -2.2,0.6000000000000001 c-0.5,0 -2.5,0 -3.7,-0.8 c-0.4,-0.30000000000000004 -0.7000000000000001,-0.6000000000000001 -0.8,-1 c-0.1,-0.5 0,-1.1 0.2,-1.5 c0.4,-0.6000000000000001 2.1,-3.1 2.1,-3.1 c0.2,-0.30000000000000004 0.2,-0.4 0.1,-0.5 c0,-0.2 -0.2,-0.30000000000000004 -0.30000000000000004,-0.4 c-0.2,-0.2 -0.6000000000000001,-0.4 -1.1,-0.7000000000000001 c0,0 -0.30000000000000004,-0.2 -0.4,-0.30000000000000004 c-0.1,-0.1 -0.30000000000000004,-0.1 -0.4,0 c-0.5,0.5 -2.3,3.3 -2.2,6.4 c0.1,1.8 0.7000000000000001,3.1 1.6,3.9 c0.8,0.8 2.3,1.6 4.7,1.5 c1.2,-0.1 2.2,-0.5 3.1,-1.3 l0.1,-0.1 l0.1,0.1 c0.2,0.2 0.4,0.4 0.7000000000000001,0.6000000000000001 c1.6,0.9 5.3,0.9 7.2,0.9 c4.2,0 5.5,-1.3 5.8,-2.4 c0.2,0.4 0.5,0.8 0.8,1.1 c1.6,1.4 4.8,1.7000000000000002 6.6,1.7000000000000002 c2.7,0 5.2,-0.30000000000000004 6.8,-0.9 c1.4,-0.6000000000000001 3.1,-1.4 4.7,-3.4 c1.6,-2 2.4,-4.9 2.4,-8 C87.00001373291016,41.73441619873047 86.40001373291017,39.934416198730474 84.80001373291014,37.434416198730474 " id="svg_6"/>
	<path class="st0" d="M19.70001373291015,51.53441619873047 L19.70001373291015,51.53441619873047 c-0.1,-0.1 -1.7000000000000002,-0.9 -2.4,-1.7000000000000002 c-0.6000000000000001,-0.7000000000000001 -1,-1.3 0,-2.2 c0.30000000000000004,-0.30000000000000004 0.8,-0.5 1.5,-0.8 C19.100013732910156,48.53441619873047 19.70001373291015,51.53441619873047 19.70001373291015,51.53441619873047 M26.70001373291015,49.434416198730474 c0.5,-0.6000000000000001 1.1,-1.9 0.2,-3.8 c-0.9,-1.9 -2.7,-2.9 -5.4,-2.6 c-0.6000000000000001,-2.6 -2.5,-10.6 -2.6,-10.7 c0,-0.2 -0.2,-0.5 -0.4,-0.6000000000000001 c-0.2,-0.1 -0.6000000000000001,-0.2 -0.8,-0.2 c-0.30000000000000004,0 -1.1,0 -1.6,0.4 c-0.5,0.4 -0.7000000000000001,0.8 -1,1.4 c-0.5,1.1 -1.3,2.9 -2.3,5.2 c-0.7000000000000001,1.5 -1.5,3.2 -2.4,5.2 c-1.1,2.4 -4,8 -4.3,8.5 c-0.2,0.4 -0.5,0.7000000000000001 -0.9,0.9 c-0.4,0.2 -1.4,0.30000000000000004 -2,0.1 c-0.9,-0.4 -1.2,-0.9 -1.4,-1.5 c-0.1,-0.4 -0.1,-0.9 -0.1,-1 c0.1,-1 0.8,-1.7000000000000002 0.9,-1.8 c0.1,-0.1 0.1,-0.1 0.1,-0.2 c0,-0.1 -0.1,-0.1 -0.2,0 c-1.1,0.30000000000000004 -2.4,1.5 -2.5,3 c0,0.1 0,0.2 0,0.30000000000000004 c0,1.4 0.9,3 2.3,3.8 c0.8,0.4 3.8,1.7000000000000002 5.6,-0.2 c0.6000000000000001,-0.6000000000000001 1.3,-1.7000000000000002 2.1,-3.5 c0.9,-1.8 3,-6.1 3.3,-6.8 c0.4,-0.7000000000000001 2.4,-4.9 3.4,-7 l0.2,-0.30000000000000004 l1.2,5.7 c-2.5,0.9 -3.6,2.3 -4,4.3 c-0.5,2.2 1.5,5.2 6.6,7.6 c0.4,0.2 2.7,1 3.1,1.1 c0.8,0.1 0.9,-0.30000000000000004 0.9,-0.4 c0.1,-0.30000000000000004 -0.1,-0.9 -0.2,-1.4 c-0.2,-0.6000000000000001 -1.6,-6.4 -2.2,-8.8 c1.5,-0.1 2.7,0.2 3.4,1.1 c0.6000000000000001,0.8 0.7000000000000001,1.6 0.7000000000000001,2 c0,0.30000000000000004 0,0.30000000000000004 0,0.30000000000000004 C26.400013732910153,49.73441619873047 26.500013732910162,49.63441619873046 26.70001373291015,49.434416198730474 " id="svg_7"/>
	<path class="st0" d="M46.70001373291015,42.23441619873047 c0.30000000000000004,-0.30000000000000004 0.9,-1 1.2,-1.3 c0.1,-0.1 0.1,-0.1 0.2,-0.1 c0.1,0 0.1,0 0.2,0.1 c0.4,0.30000000000000004 1.1,0.9 1.3,1.1 c0.2,0.2 0.7000000000000001,0.7000000000000001 0.7000000000000001,1.7000000000000002 c0,0.2 0,0.4 0,0.7000000000000001 c-0.1,0.8 -0.5,1.5 -0.7000000000000001,1.8 c0,0.1 -0.1,0.2 -0.2,0.2 c-0.1,0 -0.1,-0.2 -0.1,-0.30000000000000004 c0,-0.1 0,-0.1 0,-0.30000000000000004 c0,-0.5 -0.2,-1.1 -0.7000000000000001,-1.6 c-0.5,-0.5 -1.4,-1.2 -2,-1.6 c-0.1,-0.1 -0.1,-0.1 -0.1,-0.2 C46.600013732910156,42.434416198730474 46.600013732910156,42.334416198730466 46.70001373291015,42.23441619873047 " id="svg_8"/>
	<path class="st0" d="M106.60001373291016,48.73441619873047 c0.1,-0.1 0.1,-0.2 0,-0.2 c-0.30000000000000004,-0.30000000000000004 -1.3,-1.3 -1.6,-1.6 c-0.1,-0.1 -0.2,-0.1 -0.2,0 c-0.30000000000000004,0.30000000000000004 -1.3,1.3 -1.6,1.6 c0,0.1 0,0.2 0,0.2 c0.30000000000000004,0.30000000000000004 1.3,1.3 1.6,1.6 c0.1,0.1 0.2,0.1 0.2,0 C105.30001373291014,49.934416198730474 106.20001373291015,49.03441619873047 106.60001373291016,48.73441619873047 " id="svg_9"/>
</g><path class="st0" d="M195.80001373291014,26.13441619873047 c-1.2,-1.2 -4.8,0.5 -7.2,3.2 c-2.1,2.4 -3.4,5.8 -3.4,5.8 c0.5,-0.1 4.2,-1.9 7.5,-4.4 C193.90001373291017,29.834416198730466 197.00001373291016,27.434416198730467 195.80001373291014,26.13441619873047 M194.10001373291016,65.43441619873047 c-4,1.5 -10.4,2.6 -16.3,1.1 c-1.3,-0.30000000000000004 -2.2,-0.7000000000000001 -3,-1 c6.9,6.1 13.6,8.7 17.8,6.3 c5.5,-3 10.3,-8.2 13.9,-14.5 C203.00001373291013,61.434416198730474 198.20001373291015,63.934416198730474 194.10001373291016,65.43441619873047 M188.80001373291014,43.434416198730474 c-1.3,-0.30000000000000004 -2.8,3.7 -1.2,4.1 c0.2,0 0.4,0.1 0.7000000000000001,0 l0,0 c0.8,0 1.6,-0.2 2.3,-0.5 C190.50001373291016,44.73441619873047 189.90001373291017,43.63441619873046 188.80001373291014,43.434416198730474 M178.40001373291017,26.934416198730467 c1.8,0.9 1.5,3.5 2.2,5.7 c0.6000000000000001,2.2 2.5,2.4 2.5,2.4 s3.8,-7.3 0.6000000000000001,-13.2 c-3.2,-5.9 -8.5,-3.9 -9.9,-3.2 c-1.8,0.9 -8.7,5.3 -12.2,14.7 c-3.4,9.3 1.5,12.4 4.6,13 c3,0.5 7.7,-2.6 7.9,-4.1 c0.1,-0.8 -0.5,-1.4 -1.5,-1.6 c-0.9,-0.2 -3.4,0.30000000000000004 -5,-1.6 c-1.9,-2.3 1.4,-7.4 3.3,-9.2 C172.80001373291014,27.934416198730467 175.60001373291016,25.53441619873047 178.40001373291017,26.934416198730467 M195.40001373291017,52.03441619873047 c0.4,-0.4 1.7000000000000002,-1.7000000000000002 2.2,-2.2 c0.1,-0.1 0.2,-0.1 0.30000000000000004,0 c0.4,0.4 1.7000000000000002,1.7000000000000002 2.1,2.1 c0.1,0.1 0.1,0.2 0,0.30000000000000004 c-0.5,0.4 -1.7000000000000002,1.7000000000000002 -2.1,2.1 c-0.1,0.1 -0.2,0.1 -0.30000000000000004,0 c-0.5,-0.4 -1.7000000000000002,-1.7000000000000002 -2.2,-2.1 C195.30001373291014,52.23441619873047 195.30001373291014,52.13441619873046 195.40001373291017,52.03441619873047 M182.80001373291014,44.13441619873046 c-0.5,0.4 -1.7000000000000002,1.7000000000000002 -2.1,2.1 c-0.1,0.1 -0.2,0.1 -0.30000000000000004,0 c-0.5,-0.4 -1.7000000000000002,-1.7000000000000002 -2.2,-2.1 c-0.1,-0.1 -0.1,-0.2 0,-0.30000000000000004 c0.4,-0.4 1.7000000000000002,-1.7000000000000002 2.2,-2.2 c0.1,-0.1 0.2,-0.1 0.30000000000000004,0 c0.4,0.4 1.7000000000000002,1.7000000000000002 2.1,2.1 C182.90001373291017,43.934416198730474 182.90001373291017,44.03441619873047 182.80001373291014,44.13441619873046 M195.70001373291015,17.53441619873047 c-0.5,0.4 -1.7000000000000002,1.7000000000000002 -2.1,2.1 c-0.1,0.1 -0.2,0.1 -0.30000000000000004,0 c-0.5,-0.4 -1.7000000000000002,-1.7000000000000002 -2.2,-2.1 c-0.1,-0.1 -0.1,-0.2 0,-0.30000000000000004 c0.4,-0.4 1.7000000000000002,-1.7000000000000002 2.2,-2.2 c0.1,-0.1 0.2,-0.1 0.30000000000000004,0 c0.4,0.4 1.7000000000000002,1.7000000000000002 2.1,2.1 C195.80001373291014,17.334416198730466 195.80001373291014,17.53441619873047 195.70001373291015,17.53441619873047 M193.00001373291016,61.934416198730474 c8.8,-3.2 11.5,-8 13.5,-11.3 c4.2,-7.1 4.3,-15 3.9,-17.3 l0,-0.1 c-0.2,-1.9 -0.8,-3.8 -1.2,-3.9 c-1.8,-0.1 -4.3,12.9 -5.7,20.1 c-0.1,0.7000000000000001 -0.2,1.5 -0.7000000000000001,2.2 c-0.30000000000000004,0.6000000000000001 -0.5,0.9 -0.7000000000000001,1.1 c-0.30000000000000004,0.30000000000000004 -0.7000000000000001,0.6000000000000001 -0.6000000000000001,0 c3.3,-17.5 5.4,-26.9 7.3,-30.6 c0.2,-0.4 0.4,-0.7000000000000001 0.7000000000000001,-0.8 c-0.4,-0.8 -0.8,-1.6 -1.2,-2.4 C198.00001373291016,0.2344161987304716 170.60001373291016,-4.36558380126953 155.20001373291015,4.034416198730469 c-6.7,3.7 -6.1,21.2 2.9,39 c-0.9,-5 0.30000000000000004,-9.4 2.8,-14.5 c3.3,-6.9 14,-16.9 22,-13.8 c6.8,2.6 4.2,13.4 4.2,13.4 s4.7,-6.3 8.5,-6.5 c2,-0.1 5.4,1.4 1.3,8.1 c-4.8,7.9 -12.9,11.4 -15.7,9.7 c-2.5,-1.4 -2.5,-4.2 -2.7,-5 c-0.2,-0.7000000000000001 -0.6000000000000001,-3.3 -2.9,-3.4 c-2.3,-0.2 -6.5,3 -5.9,4.4 c0.5,1.2 3.5,0.30000000000000004 4.9,1.1 c1.4,0.9 2,2.2 1.4,4.5 c-1.5,6.9 -7.3,11.1 -11.3,10.1 c-1,-0.2 -1.9,-0.6000000000000001 -2.7,-1.1 c1.2,2 2.5,3.9 3.9,5.6 l1.2,-2 c0,-0.1 0.1,-0.1 0.2,-0.1 c2.4,0.1 5.2,-0.8 6.5,-1.9 c-1,3.4 -2.4,5.6 -7.1,5.1 c0.1,0.1 0.1,0.1 0.2,0.2 c0.9,0.4 1.9,0.9 3.1,1.3 c6.9,2.6 13.1,-0.9 14.2,-1.6 c0.9,-0.6000000000000001 4.4,-2.6 5.8,-5.4 c-0.6000000000000001,0.1 -1.2,0.1 -1.8,0.1 c-0.4,0 -0.9,-0.1 -1,-0.1 c-0.7000000000000001,0 -4.3,-0.6000000000000001 -2,-6.1 c0.4,-1 2,-4.8 4.3,-3.9 c0.7000000000000001,0.2 2.4,0.9 2.9,3.5 c0.1,0.4 0.2,0.9 0.2,1.3 c2.2,-1.3 3.8,-3.5 4.2,-5.8 c0.4,-2.3 -0.1,-3.4 -0.7000000000000001,-3.5 c-0.9,-0.1 -2.4,4.1 -2.6,4 c-0.2,-0.1 0,-0.7000000000000001 0.2,-1.4 c1.5,-5 3.7,-6.9 4.4,-6.9 c0.7000000000000001,0 1.7000000000000002,2.3 1.7000000000000002,5.4 c0,4.8 -2.8,10.4 -7.3,12.5 c-0.4,2.3 -1.3,4.2 -2.3,5.6 c-3,3.8 -9.4,7.7 -17.6,5.9 c-0.7000000000000001,-0.2 -1.4,-0.30000000000000004 -2,-0.5 c0.7000000000000001,0.8 1.4,1.5 2.2,2.2 c0.30000000000000004,0.1 0.8,0.2 1.8,0.30000000000000004 C178.10001373291016,64.53441619873047 185.50001373291016,64.63441619873046 193.00001373291016,61.934416198730474 " id="svg_10"/></g></svg>