<svg id="Layer_1" data-name="Layer 1" xmlns="http://www.w3.org/2000/svg" xmlns:xlink="http://www.w3.org/1999/xlink" viewBox="0 0 119.05 39.27"><defs><style>.cls-1{fill:#a6a6a6;}.cls-10,.cls-2,.cls-3{fill:#fff;}.cls-2{stroke:#fff;stroke-miterlimit:10;stroke-width:0.2px;}.cls-4{fill:url(#linear-gradient);}.cls-5{fill:url(#linear-gradient-2);}.cls-6{fill:url(#linear-gradient-3);}.cls-7{fill:url(#linear-gradient-4);}.cls-8{opacity:0.2;}.cls-10,.cls-8,.cls-9{isolation:isolate;}.cls-9{opacity:0.12;}.cls-10{opacity:0.25;}</style><linearGradient id="linear-gradient" x1="29.53" y1="-171.95" x2="14.73" y2="-157.16" gradientTransform="translate(-10 182)" gradientUnits="userSpaceOnUse"><stop offset="0" stop-color="#00a0ff"/><stop offset="0.01" stop-color="#00a1ff"/><stop offset="0.26" stop-color="#00beff"/><stop offset="0.51" stop-color="#00d2ff"/><stop offset="0.76" stop-color="#00dfff"/><stop offset="1" stop-color="#00e3ff"/></linearGradient><linearGradient id="linear-gradient-2" x1="40.14" y1="-162" x2="18.81" y2="-162" gradientTransform="translate(-10 182)" gradientUnits="userSpaceOnUse"><stop offset="0" stop-color="#ffe000"/><stop offset="0.41" stop-color="#ffbd00"/><stop offset="0.78" stop-color="orange"/><stop offset="1" stop-color="#ff9c00"/></linearGradient><linearGradient id="linear-gradient-3" x1="32.2" y1="-159.98" x2="12.13" y2="-139.91" gradientTransform="translate(-10 182)" gradientUnits="userSpaceOnUse"><stop offset="0" stop-color="#ff3a44"/><stop offset="1" stop-color="#c31162"/></linearGradient><linearGradient id="linear-gradient-4" x1="16.74" y1="-179.48" x2="25.7" y2="-170.52" gradientTransform="translate(-10 182)" gradientUnits="userSpaceOnUse"><stop offset="0" stop-color="#32a071"/><stop offset="0.07" stop-color="#2da771"/><stop offset="0.48" stop-color="#15cf74"/><stop offset="0.8" stop-color="#06e775"/><stop offset="1" stop-color="#00f076"/></linearGradient></defs><title>google-play-badge</title><rect width="119.05" height="39.27" rx="4.41"/><path class="cls-1" d="M115,1.07a3.7,3.7,0,0,1,3.7,3.7V35.23a3.7,3.7,0,0,1-3.7,3.7H4.71A3.7,3.7,0,0,1,1,35.23H1V4.77a3.7,3.7,0,0,1,3.7-3.7H115m0-.71H4.71A4.42,4.42,0,0,0,.3,4.77V35.23a4.42,4.42,0,0,0,4.41,4.41H115a4.42,4.42,0,0,0,4.41-4.41V4.77A4.42,4.42,0,0,0,115,.36Z" transform="translate(-0.3 -0.36)"/><path class="cls-2" d="M42.12,11.39a2.42,2.42,0,0,1-.66,1.77,2.56,2.56,0,0,1-1.94.77,2.64,2.64,0,0,1-2-.79,2.77,2.77,0,0,1,3-4.51,2.3,2.3,0,0,1,.82.59L41,9.69a1.76,1.76,0,0,0-1.45-.63A2.12,2.12,0,1,0,41,12.7a1.68,1.68,0,0,0,.44-1.08H39.52V11h2.57A2.69,2.69,0,0,1,42.12,11.39Z" transform="translate(-0.3 -0.36)"/><path class="cls-2" d="M46.16,9.19H43.78v1.67H46v.64H43.78v1.67h2.38v.66H43.09V8.54h3.07Z" transform="translate(-0.3 -0.36)"/><path class="cls-2" d="M49.05,13.83h-.68V9.19H46.89V8.54h3.68v.65H49.05Z" transform="translate(-0.3 -0.36)"/><path class="cls-2" d="M53.16,13.83V8.54h.68v5.29Z" transform="translate(-0.3 -0.36)"/><path class="cls-2" d="M56.86,13.83h-.68V9.19H54.7V8.54h3.63v.65H56.86Z" transform="translate(-0.3 -0.36)"/><path class="cls-2" d="M65.22,13.14a2.75,2.75,0,0,1-3.88,0h0a2.85,2.85,0,0,1,0-3.92,2.57,2.57,0,0,1,1.94-.8,2.67,2.67,0,0,1,1.94.8,2.7,2.7,0,0,1,.77,2A2.62,2.62,0,0,1,65.22,13.14Zm-3.38-.44a2,2,0,0,0,2.86,0l0,0a2.27,2.27,0,0,0,0-3,2,2,0,0,0-2.86,0h0A2.25,2.25,0,0,0,61.84,12.7Z" transform="translate(-0.3 -0.36)"/><path class="cls-2" d="M67,13.83V8.54h.82l2.57,4.11h0V8.54H71v5.29h-.71L67.63,9.51h0v4.32Z" transform="translate(-0.3 -0.36)"/><path class="cls-3" d="M60.39,21.54a3.76,3.76,0,1,0,3.77,3.75,3.7,3.7,0,0,0-3.64-3.75Zm0,6a2.28,2.28,0,1,1,2.12-2.43v.15a2.16,2.16,0,0,1-2.06,2.27Zm-8.21-6a3.76,3.76,0,1,0,3.76,3.75,3.7,3.7,0,0,0-3.64-3.75Zm0,6a2.28,2.28,0,1,1,2.11-2.43v.15a2.16,2.16,0,0,1-2.06,2.27ZM42.4,22.7v1.59h3.81a3.35,3.35,0,0,1-.88,2,3.86,3.86,0,0,1-2.94,1.16,4.23,4.23,0,1,1,0-8.46,4.1,4.1,0,0,1,2.89,1.13L46.4,19a5.52,5.52,0,0,0-4-1.6A5.83,5.83,0,1,0,42,29.05h.45a5.15,5.15,0,0,0,5.45-5.36,6.5,6.5,0,0,0-.08-1Zm40,1.23a3.45,3.45,0,0,0-6.74,1.13v.23a3.73,3.73,0,0,0,6.85,2.09l-1.28-.88a2.11,2.11,0,0,1-1.84,1,1.89,1.89,0,0,1-1.82-1.14l5-2.07Zm-5.11,1.26A2.06,2.06,0,0,1,79.17,23h0a1.45,1.45,0,0,1,1.39.8Zm-4.08,3.63h1.65v-11H73.17Zm-2.7-6.44h-.06a2.58,2.58,0,0,0-2-.88,3.75,3.75,0,0,0,0,7.5,2.5,2.5,0,0,0,2-.88h.06v.54c0,1.44-.76,2.2-2,2.2a2.05,2.05,0,0,1-1.89-1.33l-1.43.59a3.53,3.53,0,0,0,3.32,2.23c1.93,0,3.53-1.14,3.53-3.91V21.76H70.47Zm-1.89,5.19a2.28,2.28,0,0,1,0-4.55,2.11,2.11,0,0,1,2,2.2v.07a2.1,2.1,0,0,1-1.91,2.27ZM90.09,17.8h-4v11h1.65V24.64h2.3a3.43,3.43,0,0,0,.49-6.84A2,2,0,0,0,90.09,17.8Zm0,5.29h-2.3V19.33h2.33a1.89,1.89,0,1,1,0,3.77h0Zm10.17-1.58a3.06,3.06,0,0,0-2.93,1.68l1.45.61a1.56,1.56,0,0,1,1.51-.8,1.59,1.59,0,0,1,1.76,1.39v.13a3.8,3.8,0,0,0-1.72-.42c-1.57,0-3.17.88-3.17,2.49A2.55,2.55,0,0,0,99.82,29h.08a2.33,2.33,0,0,0,2.1-1.07h0v.88h1.59V24.58a3,3,0,0,0-3.34-3Zm-.2,6c-.54,0-1.29-.27-1.29-.94,0-.88.94-1.18,1.77-1.18a3,3,0,0,1,1.5.37,2,2,0,0,1-1.94,1.77Zm9.37-5.79-1.89,4.78h-.05l-2-4.78h-1.77l2.94,6.69L105,32.16h1.72l4.51-10.4ZM94.61,28.82h1.64v-11H94.61Z" transform="translate(-0.3 -0.36)"/><path class="cls-4" d="M9.51,9a1.76,1.76,0,0,0-.41,1.24v19.5A1.74,1.74,0,0,0,9.51,31l.06.07L20.5,20.13v-.26L9.57,9Z" transform="translate(-0.3 -0.36)"/><path class="cls-5" d="M24.11,23.77,20.5,20.13v-.26l3.61-3.64.08.05,4.33,2.45c1.24.7,1.24,1.84,0,2.55l-4.31,2.45Z" transform="translate(-0.3 -0.36)"/><path class="cls-6" d="M24.22,23.72,20.5,20l-11,11a1.43,1.43,0,0,0,1.83.06l12.88-7.33" transform="translate(-0.3 -0.36)"/><path class="cls-7" d="M24.22,16.28,11.34,9A1.42,1.42,0,0,0,9.51,9l11,11Z" transform="translate(-0.3 -0.36)"/><path class="cls-8" d="M24.11,23.64,11.34,30.92a1.49,1.49,0,0,1-1.77,0h0L9.51,31h0l.06.07h0a1.49,1.49,0,0,0,1.77,0l12.88-7.33Z" transform="translate(-0.3 -0.36)"/><path class="cls-9" d="M9.51,30.86a1.79,1.79,0,0,1-.39-1.24v.13A1.71,1.71,0,0,0,9.54,31l.06-.06Z" transform="translate(-0.3 -0.36)"/><path class="cls-9" d="M28.52,21.15l-4.41,2.49.08.08,4.33-2.45A1.56,1.56,0,0,0,29.46,20h0A1.65,1.65,0,0,1,28.52,21.15Z" transform="translate(-0.3 -0.36)"/><path class="cls-10" d="M11.34,9.08l17.18,9.77A1.65,1.65,0,0,1,29.46,20h0a1.56,1.56,0,0,0-.94-1.27L11.34,9c-1.23-.71-2.24-.12-2.24,1.29v.13C9.12,9,10.11,8.39,11.34,9.08Z" transform="translate(-0.3 -0.36)"/></svg>