<svg xmlns="http://www.w3.org/2000/svg" viewBox="0 0 25 27.05"><defs><style>.cls-1{fill:#c2002f;}</style></defs><g id="Layer_2" data-name="Layer 2"><g id="Layer_1-2" data-name="Layer 1"><path class="cls-1" d="M.39,2.73A.91.91,0,0,1,0,2a1.47,1.47,0,0,1,.29-.88L1.07.39A.94.94,0,0,1,1.86,0a1.2,1.2,0,0,1,.87.39l9.77,10,9.77-10A1.44,1.44,0,0,1,23.14.1a1.1,1.1,0,0,1,.79.29l.78.68A1.47,1.47,0,0,1,25,2a1.06,1.06,0,0,1-.29.78L13.38,14.26a1.48,1.48,0,0,1-1.76,0h.1Zm24.32,12.5a1.06,1.06,0,0,0,.29-.78,1.47,1.47,0,0,0-.29-.88l-.78-.68a.94.94,0,0,0-.79-.39,1.2,1.2,0,0,0-.87.39l-9.77,10-9.77-10a1.44,1.44,0,0,0-.87-.29,1.1,1.1,0,0,0-.79.29l-.68.68a1.23,1.23,0,0,0-.39.88,1.06,1.06,0,0,0,.29.78L11.72,26.76a1.06,1.06,0,0,0,.78.29,1.45,1.45,0,0,0,.88-.29Z"/></g></g></svg>