<?xml version="1.0" encoding="UTF-8"?>
<svg xmlns="http://www.w3.org/2000/svg" style="display: none;">
  <symbol id="info-circle" viewBox="0 0 512 512">
    <title id="info-circle-title">Info Circle</title>
    <path d="M256 40c118.621 0 216 96.075 216 216 0 119.291-96.61 216-216 216-119.244 0-216-96.562-216-216 0-119.203 96.602-216 216-216m0-32C119.043 8 8 119.083 8 256c0 136.997 111.043 248 248 248s248-111.003 248-248C504 119.083 392.957 8 256 8zm-36 344h12V232h-12c-6.627 0-12-5.373-12-12v-8c0-6.627 5.373-12 12-12h48c6.627 0 12 5.373 12 12v140h12c6.627 0 12 5.373 12 12v8c0 6.627-5.373 12-12 12h-72c-6.627 0-12-5.373-12-12v-8c0-6.627 5.373-12 12-12zm36-240c-17.673 0-32 14.327-32 32s14.327 32 32 32 32-14.327 32-32-14.327-32-32-32z"></path>
  </symbol>
  <symbol id="chevron-circle-left" viewBox="0 0 512 512">
    <title id="chevron-circle-left-title">Chevron Circle Left</title>
    <path d="M504 256C504 119 393 8 256 8S8 119 8 256s111 248 248 248 248-111 248-248zM256 472c-118.7 0-216-96.1-216-216 0-118.7 96.1-216 216-216 118.7 0 216 96.1 216 216 0 118.7-96.1 216-216 216zm-86.6-224.5l115.1-115c4.7-4.7 12.3-4.7 17 0l7.1 7.1c4.7 4.7 4.7 12.3 0 17L209 256l99.5 99.5c4.7 4.7 4.7 12.3 0 17l-7.1 7.1c-4.7 4.7-12.3 4.7-17 0l-115.1-115c-4.6-4.8-4.6-12.4.1-17.1z"></path>
  </symbol>
  <symbol id="chevron-circle-right" viewBox="0 0 512 512">
    <title id="chevron-circle-right-title">Chevron Circle Right</title>
    <path d="M8 256c0 137 111 248 248 248s248-111 248-248S393 8 256 8 8 119 8 256zM256 40c118.7 0 216 96.1 216 216 0 118.7-96.1 216-216 216-118.7 0-216-96.1-216-216 0-118.7 96.1-216 216-216zm86.6 224.5l-115.1 115c-4.7 4.7-12.3 4.7-17 0l-7.1-7.1c-4.7-4.7-4.7-12.3 0-17L303 256l-99.5-99.5c-4.7-4.7-4.7-12.3 0-17l7.1-7.1c4.7-4.7 12.3-4.7 17 0l115.1 115c4.6 4.8 4.6 12.4-.1 17.1z"></path>
  </symbol>
  <symbol id="chevron-double-up" viewBox="0 0 448 512">
    <title id="chevron-double-up-title">Chevron Double Up</title>
    <path d="M4.5 413.5l211-211.1c4.7-4.7 12.3-4.7 17 0l211 211.1c4.7 4.7 4.7 12.3 0 17l-7.1 7.1c-4.7 4.7-12.3 4.7-17 0L224 242.1 28.5 437.5c-4.7 4.7-12.3 4.7-17 0l-7.1-7.1c-4.6-4.6-4.6-12.2.1-16.9zm0-111l7.1 7.1c4.7 4.7 12.3 4.7 17 0L224 114.1l195.5 195.5c4.7 4.7 12.3 4.7 17 0l7.1-7.1c4.7-4.7 4.7-12.3 0-17l-211-211.1c-4.7-4.7-12.3-4.7-17 0L4.5 285.5c-4.7 4.7-4.7 12.3 0 17z"></path>
  </symbol>
  <symbol id="chevron-down" viewBox="0 0 448 512">
    <title id="chevron-down-title">chevron-down</title>
    <path d="M443.5 162.6l-7.1-7.1c-4.7-4.7-12.3-4.7-17 0L224 351 28.5 155.5c-4.7-4.7-12.3-4.7-17 0l-7.1 7.1c-4.7 4.7-4.7 12.3 0 17l211 211.1c4.7 4.7 12.3 4.7 17 0l211-211.1c4.8-4.7 4.8-12.3.1-17z"></path>
  </symbol>
  <symbol id="compass" viewBox="0 0 512 512">
    <title id="compass-title">Compass</title>
    <path d="M256 8C119.033 8 8 119.033 8 256s111.033 248 248 248 248-111.033 248-248S392.967 8 256 8zm216 248c0 118.663-96.055 216-216 216-118.663 0-216-96.055-216-216 0-118.663 96.055-216 216-216 118.663 0 216 96.055 216 216zM324 138.221L290.641 276 188 373.779 221.359 236 324 138.221m-22.072-23.17L199.287 212.83a31.997 31.997 0 0 0-9.029 15.639l-33.359 137.78c-7.573 31.278 30.369 52.424 53.173 30.7l102.641-97.779a31.997 31.997 0 0 0 9.029-15.639l33.359-137.78c4.907-20.264-10.567-39.531-31.092-39.531 1 0-11.736-1.024-22.081 8.831zM280 256c0 13.255-10.745 24-24 24s-24-10.745-24-24 10.745-24 24-24 24 10.745 24 24z"></path>
  </symbol>
  <symbol id="calendar-alt" viewBox="0 0 448 512">
    <title id="calendar-alt-title">Alternate Calendar</title>
    <path d="M400 64h-48V12c0-6.6-5.4-12-12-12h-8c-6.6 0-12 5.4-12 12v52H128V12c0-6.6-5.4-12-12-12h-8c-6.6 0-12 5.4-12 12v52H48C21.5 64 0 85.5 0 112v352c0 26.5 21.5 48 48 48h352c26.5 0 48-21.5 48-48V112c0-26.5-21.5-48-48-48zM48 96h352c8.8 0 16 7.2 16 16v48H32v-48c0-8.8 7.2-16 16-16zm352 384H48c-8.8 0-16-7.2-16-16V192h384v272c0 8.8-7.2 16-16 16zM148 320h-40c-6.6 0-12-5.4-12-12v-40c0-6.6 5.4-12 12-12h40c6.6 0 12 5.4 12 12v40c0 6.6-5.4 12-12 12zm96 0h-40c-6.6 0-12-5.4-12-12v-40c0-6.6 5.4-12 12-12h40c6.6 0 12 5.4 12 12v40c0 6.6-5.4 12-12 12zm96 0h-40c-6.6 0-12-5.4-12-12v-40c0-6.6 5.4-12 12-12h40c6.6 0 12 5.4 12 12v40c0 6.6-5.4 12-12 12zm-96 96h-40c-6.6 0-12-5.4-12-12v-40c0-6.6 5.4-12 12-12h40c6.6 0 12 5.4 12 12v40c0 6.6-5.4 12-12 12zm-96 0h-40c-6.6 0-12-5.4-12-12v-40c0-6.6 5.4-12 12-12h40c6.6 0 12 5.4 12 12v40c0 6.6-5.4 12-12 12zm192 0h-40c-6.6 0-12-5.4-12-12v-40c0-6.6 5.4-12 12-12h40c6.6 0 12 5.4 12 12v40c0 6.6-5.4 12-12 12z"></path>
  </symbol>
  <symbol id="sun" viewBox="0 0 512 512">
    <title id="sun-title">Sun</title>
    <path d="M489.332 299.468l-42.159-35.682c-4.812-4.072-4.822-11.492-.001-15.572l42.161-35.682c22.676-19.192 10.625-56.315-19.014-58.516l-55.081-4.086c-6.287-.467-10.655-6.464-9.153-12.598l13.136-53.649c7.053-28.808-24.452-51.837-49.776-36.164L322.48 76.59c-5.357 3.318-12.419 1.032-14.809-4.812l-20.908-51.151c-11.245-27.503-50.28-27.503-61.525-.001l-20.909 51.153c-2.383 5.829-9.436 8.137-14.809 4.811l-46.964-29.07c-25.263-15.633-56.844 7.297-49.776 36.164l13.136 53.649c1.499 6.123-2.856 12.13-9.153 12.598l-55.082 4.086c-29.627 2.2-41.698 39.317-19.012 58.516l42.159 35.682c4.812 4.071 4.822 11.492.001 15.572l-42.161 35.682c-22.676 19.192-10.625 56.315 19.014 58.516l55.081 4.086c6.287.467 10.655 6.464 9.153 12.598L92.78 428.318c-7.053 28.808 24.452 51.837 49.776 36.164l46.965-29.071c5.358-3.316 12.419-1.033 14.809 4.812l20.908 51.151c11.245 27.503 50.28 27.503 61.525.001l20.909-51.153c2.384-5.832 9.437-8.135 14.809-4.811l46.964 29.07c25.264 15.633 56.844-7.298 49.776-36.164l-13.136-53.649c-1.499-6.123 2.856-12.13 9.153-12.598l55.082-4.086c29.627-2.201 41.698-39.317 19.012-58.516zm-21.084 30.592l-55.082 4.086c-23.569 1.749-39.889 24.261-34.278 47.18l13.136 53.649c1.121 4.578-3.84 8.173-7.843 5.697l-46.963-29.069c-20.096-12.439-46.531-3.822-55.463 18.02l-20.908 51.124c-1.781 4.354-7.91 4.361-9.693-.001l-20.908-51.122c-8.914-21.799-35.33-30.483-55.462-18.021l-46.964 29.07c-4 2.476-8.964-1.121-7.843-5.697l13.136-53.649c5.62-22.956-10.749-45.434-34.278-47.18l-55.082-4.086c-4.691-.347-6.593-6.174-2.996-9.219l42.16-35.682c18.042-15.27 18.011-43.074 0-58.318L40.758 191.16c-3.592-3.039-1.705-8.871 2.995-9.219l55.082-4.086c23.569-1.749 39.889-24.261 34.278-47.18l-13.136-53.649c-1.119-4.569 3.836-8.177 7.843-5.697l46.963 29.069c20.096 12.439 46.531 3.822 55.463-18.02l20.908-51.124c1.781-4.353 7.909-4.361 9.693 0l20.908 51.123c8.945 21.875 35.398 30.439 55.462 18.021l46.964-29.07c3.998-2.478 8.964 1.121 7.843 5.697l-13.136 53.649c-5.62 22.956 10.749 45.434 34.278 47.18l55.082 4.086c4.691.347 6.593 6.174 2.996 9.219l-42.16 35.682c-18.042 15.27-18.011 43.074 0 58.318l42.159 35.682c3.592 3.039 1.705 8.871-2.995 9.219zM256 128c-70.579 0-128 57.421-128 128s57.421 128 128 128 128-57.421 128-128-57.421-128-128-128zm0 224c-52.935 0-96-43.065-96-96s43.065-96 96-96 96 43.065 96 96-43.065 96-96 96z"></path>
  </symbol>
  <symbol id="check" viewBox="0 0 448 512">
    <title id="check-title">Check</title>
    <path d="M413.505 91.951L133.49 371.966l-98.995-98.995c-4.686-4.686-12.284-4.686-16.971 0L6.211 284.284c-4.686 4.686-4.686 12.284 0 16.971l118.794 118.794c4.686 4.686 12.284 4.686 16.971 0l299.813-299.813c4.686-4.686 4.686-12.284 0-16.971l-11.314-11.314c-4.686-4.686-12.284-4.686-16.97 0z"></path>
  </symbol>
  <symbol id="check-circle" viewBox="0 0 512 512">
    <title id="check-circle-title">Check Circle</title>
    <path d="M256 8C119.033 8 8 119.033 8 256s111.033 248 248 248 248-111.033 248-248S392.967 8 256 8zm0 464c-118.664 0-216-96.055-216-216 0-118.663 96.055-216 216-216 118.664 0 216 96.055 216 216 0 118.663-96.055 216-216 216zm141.63-274.961L217.15 376.071c-4.705 4.667-12.303 4.637-16.97-.068l-85.878-86.572c-4.667-4.705-4.637-12.303.068-16.97l8.52-8.451c4.705-4.667 12.303-4.637 16.97.068l68.976 69.533 163.441-162.13c4.705-4.667 12.303-4.637 16.97.068l8.451 8.52c4.668 4.705 4.637 12.303-.068 16.97z"></path>
  </symbol>
  <symbol id="times" viewBox="0 0 320 512">
    <title id="times-title">Times</title>
    <path d="M193.94 256L296.5 153.44l21.15-21.15c3.12-3.12 3.12-8.19 0-11.31l-22.63-22.63c-3.12-3.12-8.19-3.12-11.31 0L160 222.06 36.29 98.34c-3.12-3.12-8.19-3.12-11.31 0L2.34 120.97c-3.12 3.12-3.12 8.19 0 11.31L126.06 256 2.34 379.71c-3.12 3.12-3.12 8.19 0 11.31l22.63 22.63c3.12 3.12 8.19 3.12 11.31 0L160 289.94 262.56 392.5l21.15 21.15c3.12 3.12 8.19 3.12 11.31 0l22.63-22.63c3.12-3.12 3.12-8.19 0-11.31L193.94 256z"></path>
  </symbol>
  <symbol id="times-circle" viewBox="0 0 512 512">
    <title id="times-circle-title">Times Circle</title>
    <path d="M256 8C119 8 8 119 8 256s111 248 248 248 248-111 248-248S393 8 256 8zm0 464c-118.7 0-216-96.1-216-216 0-118.7 96.1-216 216-216 118.7 0 216 96.1 216 216 0 118.7-96.1 216-216 216zm94.8-285.3L281.5 256l69.3 69.3c4.7 4.7 4.7 12.3 0 17l-8.5 8.5c-4.7 4.7-12.3 4.7-17 0L256 281.5l-69.3 69.3c-4.7 4.7-12.3 4.7-17 0l-8.5-8.5c-4.7-4.7-4.7-12.3 0-17l69.3-69.3-69.3-69.3c-4.7-4.7-4.7-12.3 0-17l8.5-8.5c4.7-4.7 12.3-4.7 17 0l69.3 69.3 69.3-69.3c4.7-4.7 12.3-4.7 17 0l8.5 8.5c4.6 4.7 4.6 12.3 0 17z"></path>
  </symbol>
  <symbol id="ban" viewBox="0 0 512 512">
    <title id="ban-title">ban</title>
    <path d="M256 8C119.033 8 8 119.033 8 256s111.033 248 248 248 248-111.033 248-248S392.967 8 256 8zM103.265 408.735c-80.622-80.622-84.149-208.957-10.9-293.743l304.644 304.643c-84.804 73.264-213.138 69.706-293.744-10.9zm316.37-11.727L114.992 92.365c84.804-73.263 213.137-69.705 293.743 10.9 80.622 80.621 84.149 208.957 10.9 293.743z"></path>
  </symbol>
  <symbol id="play-circle" viewBox="0 0 512 512">
    <title id="play-circle-title">Play Circle</title>
    <path d="M256 504c137 0 248-111 248-248S393 8 256 8 8 119 8 256s111 248 248 248zM40 256c0-118.7 96.1-216 216-216 118.7 0 216 96.1 216 216 0 118.7-96.1 216-216 216-118.7 0-216-96.1-216-216zm331.7-18l-176-107c-15.8-8.8-35.7 2.5-35.7 21v208c0 18.4 19.8 29.8 35.7 21l176-101c16.4-9.1 16.4-32.8 0-42zM192 335.8V176.9c0-4.7 5.1-7.6 9.1-5.1l134.5 81.7c3.9 2.4 3.8 8.1-.1 10.3L201 341c-4 2.3-9-.6-9-5.2z"></path>
  </symbol>
  <symbol id="spinner" viewBox="0 0 512 512">
    <title id="spinner-title">Spinner</title>
    <path d="M288 32c0 17.673-14.327 32-32 32s-32-14.327-32-32 14.327-32 32-32 32 14.327 32 32zm-32 416c-17.673 0-32 14.327-32 32s14.327 32 32 32 32-14.327 32-32-14.327-32-32-32zm256-192c0-17.673-14.327-32-32-32s-32 14.327-32 32 14.327 32 32 32 32-14.327 32-32zm-448 0c0-17.673-14.327-32-32-32S0 238.327 0 256s14.327 32 32 32 32-14.327 32-32zm33.608 126.392c-17.673 0-32 14.327-32 32s14.327 32 32 32 32-14.327 32-32-14.327-32-32-32zm316.784 0c-17.673 0-32 14.327-32 32s14.327 32 32 32 32-14.327 32-32-14.327-32-32-32zM97.608 65.608c-17.673 0-32 14.327-32 32 0 17.673 14.327 32 32 32s32-14.327 32-32c0-17.673-14.327-32-32-32z"></path>
  </symbol>
  <symbol id="cog" viewBox="0 0 512 512">
    <title id="cog-title">cog</title>
    <path d="M482.696 299.276l-32.61-18.827a195.168 195.168 0 0 0 0-48.899l32.61-18.827c9.576-5.528 14.195-16.902 11.046-27.501-11.214-37.749-31.175-71.728-57.535-99.595-7.634-8.07-19.817-9.836-29.437-4.282l-32.562 18.798a194.125 194.125 0 0 0-42.339-24.48V38.049c0-11.13-7.652-20.804-18.484-23.367-37.644-8.909-77.118-8.91-114.77 0-10.831 2.563-18.484 12.236-18.484 23.367v37.614a194.101 194.101 0 0 0-42.339 24.48L105.23 81.345c-9.621-5.554-21.804-3.788-29.437 4.282-26.36 27.867-46.321 61.847-57.535 99.595-3.149 10.599 1.47 21.972 11.046 27.501l32.61 18.827a195.168 195.168 0 0 0 0 48.899l-32.61 18.827c-9.576 5.528-14.195 16.902-11.046 27.501 11.214 37.748 31.175 71.728 57.535 99.595 7.634 8.07 19.817 9.836 29.437 4.283l32.562-18.798a194.08 194.08 0 0 0 42.339 24.479v37.614c0 11.13 7.652 20.804 18.484 23.367 37.645 8.909 77.118 8.91 114.77 0 10.831-2.563 18.484-12.236 18.484-23.367v-37.614a194.138 194.138 0 0 0 42.339-24.479l32.562 18.798c9.62 5.554 21.803 3.788 29.437-4.283 26.36-27.867 46.321-61.847 57.535-99.595 3.149-10.599-1.47-21.972-11.046-27.501zm-65.479 100.461l-46.309-26.74c-26.988 23.071-36.559 28.876-71.039 41.059v53.479a217.145 217.145 0 0 1-87.738 0v-53.479c-33.621-11.879-43.355-17.395-71.039-41.059l-46.309 26.74c-19.71-22.09-34.689-47.989-43.929-75.958l46.329-26.74c-6.535-35.417-6.538-46.644 0-82.079l-46.329-26.74c9.24-27.969 24.22-53.869 43.929-75.969l46.309 26.76c27.377-23.434 37.063-29.065 71.039-41.069V44.464a216.79 216.79 0 0 1 87.738 0v53.479c33.978 12.005 43.665 17.637 71.039 41.069l46.309-26.76c19.709 22.099 34.689 47.999 43.929 75.969l-46.329 26.74c6.536 35.426 6.538 46.644 0 82.079l46.329 26.74c-9.24 27.968-24.219 53.868-43.929 75.957zM256 160c-52.935 0-96 43.065-96 96s43.065 96 96 96 96-43.065 96-96-43.065-96-96-96zm0 160c-35.29 0-64-28.71-64-64s28.71-64 64-64 64 28.71 64 64-28.71 64-64 64z"></path>
  </symbol>
  <symbol id="abudhabi" viewBox="0 0 416 512">
    <title id="abudhabi-title">Abu Dhabi Logo</title>
    <path d="M301.064,460.876C329.1,450.407,362.691,432.811,387,404.145c-24.571,44.169-58.27,80.732-96.065,101.869-29.312,16.458-75.744-1.863-123.561-44.615a144.125,144.125,0,0,0,20.46,7.144c40.874,10.9,85.643,2.694,113.23-7.667M192.179,189.746c12.547,6.6,10.591,24.586,14.979,40.412,4.387,15.8,17.227,17.119,17.227,17.119s26.279-51.45,3.864-93.063c-22.492-41.643-59.348-27.172-68.754-22.6-12.5,6.035-60.426,37.364-84.488,103.224-23.77,65.229,10.514,87.6,31.714,91.308,21.137,3.71,53.713-18.058,54.791-29.22.569-5.834-3.757-9.5-10.084-10.976-6.389-1.463-23.57,2.247-34.47-10.962-13.471-16.288,9.73-52.327,22.616-65.074,13.424-13.24,33.207-30.39,52.6-20.168m149.49,178.986a1.72,1.72,0,0,0,0-2.217c-3.156-3.217-11.808-11.808-14.856-14.918a1.363,1.363,0,0,0-2.032-.107c-3.033,3.079-12.009,12.054-15.01,15.179a1.754,1.754,0,0,0,0,2.063c3.2,3.171,11.854,11.947,15.01,15.056a1.4,1.4,0,0,0,2.032,0c3.048-3.109,11.7-11.885,14.856-15.056M222.511,310.847a1.781,1.781,0,0,0,0-2.233c-3.156-3.2-11.823-11.823-14.856-14.917a1.378,1.378,0,0,0-2.032-.124c-3.048,3.11-12.008,12.055-15.01,15.164a1.938,1.938,0,0,0,0,2.11c3.186,3.14,11.839,11.931,15.01,15.056a1.372,1.372,0,0,0,2.032,0c3.033-3.125,11.7-11.916,14.856-15.056m89.661-187.112a1.758,1.758,0,0,0,0-2.217c-3.11-3.2-11.793-11.823-14.825-14.918a1.484,1.484,0,0,0-2.079-.123c-2.986,3.079-11.992,12.07-14.964,15.164a1.806,1.806,0,0,0,0,2.094c3.156,3.156,11.839,11.947,14.964,15.057a1.4,1.4,0,0,0,2.079,0c3.032-3.11,11.715-11.9,14.825-15.057M414.441,234.6c2.5,16.257,1.694,72.064-27.356,121.713-13.733,23.385-32.761,57.27-93.541,79.716-52.651,19.4-104.055,18.243-128.117,14.163-6.943-1.185-10.592-1.986-12.547-2.463-4.989-4.957-9.977-10.253-14.964-15.7,4.341,1.37,8.9,2.663,13.732,3.787,56.777,13.024,101.222-14.564,122.021-41.243,7.451-9.56,13.471-23.416,16.211-39.242,30.852-15.056,50.619-54.345,50.511-88.352-.03-21.615-6.82-37.857-11.885-37.826-5.111.046-20.244,13.409-30.451,48.633-1.309,4.542-3.033,8.667-1.355,9.56s12.409-29.173,18.32-28.142c4.357.77,7.929,8.852,5.188,24.694-2.894,16.565-14.563,31.529-29.5,40.92-.354-3.11-.831-6.22-1.478-9.391-3.848-18.7-15.656-23.17-20.29-24.894-15.811-5.927-26.8,20.783-29.728,27.711-16.4,38.611,8.852,42.66,13.625,42.829.939,0,3.925.308,7,.493a61.834,61.834,0,0,0,12.24-.631c-10.284,19.7-34.563,34.238-40.536,38.241-7.543,5-50.388,29.635-98.4,11.084-8.252-3.186-15.241-6.312-21.291-9.36-.324-.462-.708-.939-1.032-1.4,32.191,3.141,41.69-12.162,48.864-35.9-9.114,7.513-28.65,14.04-44.984,13.378a1.355,1.355,0,0,0-1.263.739l-8.251,14.3c-9.222-12.454-18.243-25.663-26.88-39.642a67.607,67.607,0,0,0,18.89,7.775c28,6.912,68.076-22.416,78.545-71.31,3.525-16.411-.185-25.695-10.022-31.93-9.76-6.188-30.882.739-34.039-8-3.648-10.038,25.264-32.591,41.244-31.283,16.026,1.293,18.812,18.921,19.937,24.186,1.092,5.28,1.431,25.063,18.612,35.193,19.6,11.577,75.359-13.209,108.843-68.585,28.558-47.247,4.834-57.578-9.037-56.885-26.31,1.417-59.271,46.093-59.271,46.093s18.274-75.759-29.189-94.264C167.228,81.645,93.378,152.108,70.193,200.818c-17.181,36.055-25.171,67.2-19.321,102.193C-10.924,177.88-15.081,54.688,31.12,28.7,137.577-30.97,328.167,1.683,399.847,133.4c3.079,5.666,5.773,11.423,8.375,17.258-1.617.739-3.156,2.479-4.588,5.327-13.332,26.587-27.957,92.616-50.9,215.746-.708,3.849,2.109,1.847,3.864-.185,1.586-1.739,2.787-3.433,5.188-7.8,3-5.373,3.572-10.5,4.588-15.718,9.9-50.819,27.28-142.2,39.812-141.465,3,.184,6.743,13.624,8.3,27.264l-.047.77m-150.2,71.461c-8.774-1.94-19.444,26.063-8.4,28.542a18.36,18.36,0,0,0,4.695.354,59.2,59.2,0,0,0,16.1-3.325c-.862-16.565-5.219-23.986-12.394-25.571M312.8,184.439c-8.1-8.682-33.622,3.695-50.249,22.77-14.41,16.611-23.416,40.92-23.416,40.92,3.6-.431,29.189-13.025,51.789-31.052,8.821-7.02,30.02-24,21.876-32.638"></path>
  </symbol>
</svg>
