<svg id="Layer_1" data-name="Layer 1" xmlns="http://www.w3.org/2000/svg" viewBox="0 0 8.75 8.75"><defs><style>.cls-1{fill:#fff;}</style></defs><title>instagram-icon</title><path class="cls-1" d="M9.37,5c0,.85,0,1.46,0,1.83a3.67,3.67,0,0,1-.17,1A2.31,2.31,0,0,1,7.79,9.18a3.67,3.67,0,0,1-1,.17c-.38,0-1,0-1.83,0s-1.45,0-1.83,0a3.27,3.27,0,0,1-1-.19,2,2,0,0,1-.85-.52,2.29,2.29,0,0,1-.54-.85,3.67,3.67,0,0,1-.17-1c0-.37,0-1,0-1.83s0-1.46,0-1.83a3.67,3.67,0,0,1,.17-1A2.31,2.31,0,0,1,2.21.82a3.67,3.67,0,0,1,1-.17c.38,0,1,0,1.83,0s1.45,0,1.83,0a3.67,3.67,0,0,1,1,.17A2.31,2.31,0,0,1,9.18,2.21a4.2,4.2,0,0,1,.18,1C9.37,3.55,9.37,4.15,9.37,5Zm-.8,1.52c0-.28,0-.69,0-1.21V4.69c0-.54,0-.94,0-1.21a3.69,3.69,0,0,0-.15-1.06,1.45,1.45,0,0,0-.84-.84,3.69,3.69,0,0,0-1.06-.15c-.28,0-.69,0-1.21,0H4.69c-.52,0-.93,0-1.21,0a3.82,3.82,0,0,0-1.06.15,1.45,1.45,0,0,0-.84.84,3.69,3.69,0,0,0-.15,1.06c0,.28,0,.69,0,1.21v.62c0,.52,0,.93,0,1.21a3.88,3.88,0,0,0,.15,1.06,1.51,1.51,0,0,0,.84.84,3.82,3.82,0,0,0,1.06.15c.28,0,.69,0,1.21,0h.62c.54,0,.94,0,1.21,0a3.69,3.69,0,0,0,1.06-.15,1.51,1.51,0,0,0,.84-.84A3.88,3.88,0,0,0,8.57,6.52ZM6.12,3.06a2.15,2.15,0,0,1,.82.82,2.18,2.18,0,0,1,0,2.24,2.15,2.15,0,0,1-.82.82,2.18,2.18,0,0,1-2.24,0,2.15,2.15,0,0,1-.82-.82,2.18,2.18,0,0,1,0-2.24,2.15,2.15,0,0,1,.82-.82,2.18,2.18,0,0,1,2.24,0ZM6,6a1.46,1.46,0,0,0-1-2.5A1.45,1.45,0,0,0,3.54,5,1.45,1.45,0,0,0,5,6.46,1.45,1.45,0,0,0,6,6ZM7.71,2.29a.47.47,0,0,0-.37-.16.53.53,0,0,0-.52.53.51.51,0,0,0,.52.52A.46.46,0,0,0,7.7,3a.6.6,0,0,0,.17-.37A.47.47,0,0,0,7.71,2.29Z" transform="translate(-0.63 -0.63)"/></svg>