<svg xmlns="http://www.w3.org/2000/svg" xmlns:xlink="http://www.w3.org/1999/xlink" version="1.1" style="enable-background:new 0 0 322 140;" xml:space="preserve" width="268" height="93"><rect id="backgroundrect" width="100%" height="100%" x="0" y="0" fill="none" stroke="none"/>
<style type="text/css">
	.st0{fill:#FFFFFF;}
	.st1{fill:#C3002F;}
</style>


<g class="currentLayer" style=""><title>Layer 1</title><g id="svg_1" class="">
	<path class="st0" d="M190.3000015258789,52.47439041137696 c0.1,-0.1 0.1,-0.2 0,-0.30000000000000004 c-0.4,-0.4 -1.6,-1.6 -2.1,-2.1 c-0.1,-0.1 -0.2,-0.1 -0.30000000000000004,0 c-0.4,0.5 -1.7000000000000002,1.7000000000000002 -2.1,2.1 c-0.1,0.1 -0.1,0.2 0,0.30000000000000004 c0.4,0.4 1.6,1.7000000000000002 2.1,2.1 c0.1,0.1 0.2,0.1 0.30000000000000004,0 h0 C188.6000015258789,54.07439041137695 189.8000015258789,52.87439041137695 190.3000015258789,52.47439041137696 " id="svg_2"/>
	<path class="st0" d="M42.400001525878906,39.47439041137695 c0,0 0.2,-0.2 0.30000000000000004,-0.1 c0.1,0 0,0.30000000000000004 0,0.30000000000000004 c-0.2,1.7000000000000002 -1.1,8 -1.5,16.2 c-0.1,1.3 -0.1,2.7 -0.2,4 l0,0.5 l0.30000000000000004,-0.30000000000000004 c1.1,-1.5 3.1,-2.3 5.5,-2.3 c1.5,0 5,0.5 5.9,5 c0.30000000000000004,1.6 -0.1,5.3 -3.4,8 c-1,0.8 -3.8,2.2 -7,2.2 c-2.7,0.1 -5.4,-0.1 -7.2,-1.6 c-1,-0.8 -1.8,-1.9 -2,-5 c0,-0.30000000000000004 0,-0.6000000000000001 0,-0.9 c0,-0.4 0,-0.5 0,-0.8 c0,-0.2 0,-0.30000000000000004 0.1,-0.2 c0,0 0.1,0.1 0.1,0.30000000000000004 c0.1,0.2 0.1,0.30000000000000004 0.2,0.5 c1.5,2.9 6.6,3.4 8.4,3.3 c3.6,-0.1 5.1,-1.1 6.2,-2.7 c0.6000000000000001,-0.9 0.9,-2 0.7000000000000001,-3 c-0.30000000000000004,-1.5 -1.3,-2.2 -3.1,-2.2 c-2.6,0 -4.6,2.1 -4.6,4.8 l0,0.4 l0,0.8 c0,0.2 0,0.30000000000000004 -0.1,0.30000000000000004 c-0.1,0 -0.2,0 -0.30000000000000004,-0.1 l-3.2,-1.9 c-0.1,0 -0.30000000000000004,-0.2 -0.4,-0.30000000000000004 c-0.1,-0.1 -0.1,-0.30000000000000004 -0.1,-0.5 c0,-2.9 0.1,-6.1 0.2,-8.2 c0.2,-4.1 0.5,-8.1 1,-12 c0,-0.30000000000000004 0.1,-0.5 0.2,-0.7000000000000001 c0.1,-0.1 0.30000000000000004,-0.30000000000000004 0.4,-0.5 C38.60000152587891,42.67439041137695 42.400001525878906,39.47439041137695 42.400001525878906,39.47439041137695 " id="svg_3"/>
	<path class="st0" d="M183.70000152587892,59.47439041137696 c0.7000000000000001,-0.6000000000000001 3,-2.5 3.9,-3.2 c0.1,-0.1 0.2,-0.2 0.2,-0.1 c0.1,0 0,0.2 0,0.30000000000000004 c-0.1,3 -0.2,5.9 -0.2,8.8 v0.4 v2.6 c0.1,1.3 0.30000000000000004,2.1 0.7000000000000001,2.4 c0.4,0.4 1.3,0.7000000000000001 2.9,0.5 l0.2,0 c0.1,0 0.2,0 0.2,0 c0,0.1 -0.2,0.2 -0.30000000000000004,0.30000000000000004 l0,0 c-1.3,0.6000000000000001 -2.4,1 -3.4,1 l-0.5,0 c-0.9,0 -1.9,-0.5 -2.6,-1.1 l-0.2,-0.2 c-0.1,-0.1 -0.2,-0.2 -0.30000000000000004,-0.4 c-0.5,-0.7000000000000001 -0.8,-1.3 -0.8,-2.3 c0,-1 0,-6.6 0.1,-8.3 c0,-0.1 0,-0.30000000000000004 0,-0.4 C183.6000015258789,59.57439041137695 183.6000015258789,59.57439041137695 183.70000152587892,59.47439041137696 " id="svg_4"/>
	<path class="st0" d="M150.1000015258789,68.27439041137696 c-1,0.7000000000000001 -2.2,1.1 -3.4,0.9 c-1.5,-0.2 -2.3,-0.8 -2.3,-1.7000000000000002 c0,-0.9 0.7000000000000001,-1.4 2,-1.5 c1,-0.1 2.2,0.6000000000000001 3.7,2.1 l0.1,0.1 L150.1000015258789,68.27439041137696 zM181.70000152587892,62.67439041137695 c-0.8,-4.5 -4.4,-5 -5.9,-5 c-2.4,0 -4.3,0.8 -5.4,2.3 l-0.30000000000000004,0.30000000000000004 l0,-0.5 c0,-1.3 0.1,-2.7 0.2,-4 c0.4,-8.2 1.3,-14.5 1.5,-16.2 c0,0 0,-0.2 -0.1,-0.30000000000000004 c-0.1,-0.1 -0.30000000000000004,0.1 -0.30000000000000004,0.1 c0,0 -3.8,3.2 -3.8,3.2 c-0.1,0.1 -0.4,0.30000000000000004 -0.4,0.5 c-0.1,0.1 -0.2,0.4 -0.2,0.7000000000000001 c-0.5,3.9 -0.8,7.9 -1,12 c-0.1,2.1 -0.2,5.3 -0.2,8.2 c0,0.2 0,0.30000000000000004 0.1,0.5 c0.1,0.1 0.30000000000000004,0.30000000000000004 0.30000000000000004,0.30000000000000004 l3.3,1.9 c0.1,0.1 0.2,0.1 0.30000000000000004,0.1 c0.1,0 0.1,-0.1 0.1,-0.30000000000000004 v-0.8 l0,-0.4 c0,-2.7 2,-4.8 4.6,-4.8 c1.8,0 2.9,0.7000000000000001 3.2,2.2 c0.2,1 -0.1,2.1 -0.7000000000000001,3 c-1.1,1.6 -2.6,2.7 -6.2,2.7 c-1.7000000000000002,0 -6.9,-0.4 -8.4,-3.3 c-0.1,-0.2 -0.2,-0.30000000000000004 -0.2,-0.4 c-0.1,-0.1 -0.1,-0.30000000000000004 -0.2,-0.30000000000000004 c-0.1,0 -0.1,0.1 -0.1,0.30000000000000004 c0,0.1 -0.1,0.30000000000000004 -0.1,0.4 c-0.1,0.9 -0.5,2 -1.2,2.6 c-0.7000000000000001,0.6000000000000001 -2.2,0.6000000000000001 -3.4,0.5 c-0.5,-0.1 -1.6,-0.30000000000000004 -2.6,-0.6000000000000001 l-0.2,-0.1 l0.1,-0.1 c1,-2.6 1.1,-5.5 0.1,-7.1 c-0.9,-1.6 -2.7,-2.6 -4.5,-2.8 c-1.9,-0.2 -4.6,0.1 -6,1.2 c-0.8,0.6000000000000001 -1,2 -1.1,3 c0,0.2 0,0.4 0,0.4 c0.1,0 0.2,-0.1 0.30000000000000004,-0.2 c0.7000000000000001,-0.5 1.8,-1.3 3,-1.5 c1.5,-0.30000000000000004 2.8,0 3.4,0.4 c1.7000000000000002,0.9 1.9,2.5 2,2.9 c0.1,0.5 0,1 -0.1,1.5 l0,0.30000000000000004 l-0.2,-0.2 c-2.1,-2 -3.5,-2.6 -5.4,-2.3 c-0.9,0.2 -2,0.7000000000000001 -2.8,1.6 c-0.5,0.4 -1.7000000000000002,2.2 -2.8,2.6 c-2.3,0.9 -12.1,0.5 -13.5,-0.4 c-0.8,-0.5 -0.7000000000000001,-1.8 -0.7000000000000001,-2.3 v-0.1 c0,-0.30000000000000004 0.2,-3 0.2,-4.5 c0.1,-1.1 -0.1,-1.8 -0.5,-2.2 c-0.5,-0.4 -1.2,-0.6000000000000001 -1.7000000000000002,-0.6000000000000001 c-0.5,0 -1.2,0.2 -2.2,1 c-2.9,2.5 -4.2,4.4 -4.7,5.3 c-0.1,0.1 -0.2,0.30000000000000004 -0.30000000000000004,0.30000000000000004 c-0.2,0.1 -0.2,-0.2 -0.1,-0.30000000000000004 c0,-2.1 0.2,-7.8 0.2,-8 c0.4,-8.2 1.3,-14.5 1.5,-16.2 l0,-0.1 c0,-0.1 0,-0.30000000000000004 0,-0.30000000000000004 c-0.1,-0.1 -0.2,0 -0.2,0.1 c0,0 -3.9,3.3 -3.9,3.3 c-0.1,0.1 -0.30000000000000004,0.30000000000000004 -0.4,0.5 c-0.1,0.1 -0.2,0.4 -0.2,0.7000000000000001 l0,0.1 c-0.30000000000000004,3 -0.8,7.1 -1,11.9 c-0.30000000000000004,7.8 -0.2,11.5 -0.2,15.5 c0,1 0.5,1.3 0.9,1.4 c0.1,0 1,0.30000000000000004 1.4,-0.5 c2.2,-4.3 3.9,-6.6 7,-9.7 c0.1,-0.1 0.30000000000000004,-0.30000000000000004 0.5,-0.2 c0.2,0.1 0.2,0.30000000000000004 0.2,0.5 l-0.1,1.3 c0,0.6000000000000001 -0.1,1.1 -0.1,2.3 c0,1.2 0.1,4.2 2.1,5.3 c2.1,1.1 12.3,0.9 12.3,0.9 c3.3,0 3.9,-0.6000000000000001 4.5,-1.4 c0.30000000000000004,-0.30000000000000004 0.5,-0.8 0.7000000000000001,-1.2 c0.7000000000000001,1.7000000000000002 2.3,2.4 2.4,2.4 c0,0 0.9,0.4 2.4,0.4 c1.1,0 2.4,-0.30000000000000004 3.6,-0.9 c0.4,-0.2 0.9,-0.5 1.4,-1 l0.1,-0.1 l0.1,0.1 c0.4,0.4 1,0.7000000000000001 1.6,1.1 c1.6,0.9 4.5,0.8 4.5,0.8 c2.9,-0.1 3.9,-1.4 4.1,-2.2 c0,-0.2 0.1,-0.4 0.1,-0.6000000000000001 c0.4,0.8 0.8,1.3 1.3,1.8 c1.8,1.4 4.5,1.6 7.2,1.6 c3.1,0 5.9,-1.4 7,-2.2 C181.70000152587892,67.97439041137696 182.0000015258789,64.27439041137696 181.70000152587892,62.67439041137695 " id="svg_5"/>
	<path class="st0" d="M108.0000015258789,47.87439041137695 c-1.6,-2.4 -3.8,-4.1 -6.9,-5.4 c-1.5,-0.6000000000000001 -3.4,-0.9 -5.7,-1 c0,0 -2.7,-0.1 -4.2,-0.2 c-0.9,-0.1 -1.5,-0.4 -2,-0.7000000000000001 c-0.2,-0.2 -0.30000000000000004,-0.30000000000000004 -0.5,-0.30000000000000004 c-0.2,0 -0.2,0.5 -0.2,0.8 c-0.2,2.7 -0.9,11.7 -1.1,13.9 c-0.1,2.1 -0.1,5.3 -0.2,8.2 c0,0.2 0,0.30000000000000004 0.1,0.5 c0.1,0.1 0.30000000000000004,0.30000000000000004 0.4,0.30000000000000004 l3.3,1.9 c0.1,0.1 0.2,0.1 0.30000000000000004,0.1 c0.1,0 0.1,-0.1 0.1,-0.4 v-0.7000000000000001 l0,-0.4 l0,-4.9 l0,-0.7000000000000001 c0,-1.2 0.1,-2.7 0.1,-4 c0.1,-2 0.30000000000000004,-4.1 0.4,-6.1 h0 c0,-0.5 0.1,-1.4 0.5,-1.9 c0.5,-0.8 1.1,-1 1.7000000000000002,-1.1 c0.6000000000000001,-0.1 2.3,-0.30000000000000004 4.9,0.7000000000000001 c1.9,0.8 3.7,2 4.6,3.4 c0.7000000000000001,1.1 1.3,2.5 1.6,3.6 c0.30000000000000004,1.7000000000000002 0.4,5.4 -1.2,8.5 c-1.4,2.6 -3.6,4.4 -6.8,5.2 c-1,0.2 -2.4,0.4 -4.2,0.5 c-1.7000000000000002,0 -8.5,-0.8 -10,-4.3 c-0.1,-0.30000000000000004 -0.2,-0.5 -0.30000000000000004,-0.5 c-0.2,0 -0.2,0.2 -0.30000000000000004,0.5 c-0.2,0.9 -0.4,1.9 -0.7000000000000001,2.3 c-0.4,0.6000000000000001 -0.9,2.1 -6,2 c-3.6,-0.1 -5.1,-0.1 -6.5,-0.9 c-0.6000000000000001,-0.4 -0.7000000000000001,-1.1 -0.7000000000000001,-1.7000000000000002 c0,-0.2 0.4,-7 0.4,-7.8 c0,-0.30000000000000004 0.1,-0.5 -0.1,-0.5 c-0.1,0 -0.30000000000000004,0.1 -0.4,0.2 c-0.7000000000000001,0.6000000000000001 -1.8,1.5 -2.5,2.1 c-0.30000000000000004,0.2 -0.4,0.30000000000000004 -0.5,0.5 c-0.1,0.2 -0.1,0.4 -0.1,0.6000000000000001 c-0.1,2.2 -0.30000000000000004,6.7 -0.30000000000000004,6.7 l0,0 c-0.7000000000000001,0.5 -2.1,0.7000000000000001 -2.8,0.8 c-0.7000000000000001,0 -3.2,0.1 -4.8,-1 c-0.5,-0.30000000000000004 -0.9,-0.8 -1,-1.3 c-0.1,-0.7000000000000001 0,-1.3 0.30000000000000004,-2 c0.5,-0.8 2.7,-4 2.7,-4 c0.2,-0.4 0.2,-0.5 0.2,-0.6000000000000001 c0,-0.2 -0.2,-0.30000000000000004 -0.30000000000000004,-0.5 c-0.30000000000000004,-0.2 -0.8,-0.5 -1.4,-0.9 c0,0 -0.4,-0.30000000000000004 -0.5,-0.30000000000000004 c-0.2,-0.1 -0.4,-0.1 -0.5,0.1 c-0.7000000000000001,0.6000000000000001 -3,4.2 -2.8,8.1 c0.1,2.3 1,3.9 2,4.9 c1.1,1 2.9,2.1 6,1.9 c1.5,-0.1 2.8,-0.6000000000000001 3.9,-1.6 l0.1,-0.1 l0.1,0.1 c0.30000000000000004,0.30000000000000004 0.5,0.5 0.9,0.7000000000000001 c2.1,1.1 6.7,1.2 9.2,1.1 c5.3,-0.1 6.9,-1.7000000000000002 7.4,-3.1 c0.30000000000000004,0.6000000000000001 0.7000000000000001,1 1.1,1.3 c2,1.8 6.1,2.1 8.4,2.1 c3.4,0 6.7,-0.4 8.6,-1.2 c1.8,-0.7000000000000001 4,-1.8 6,-4.4 c2,-2.6 3.1,-6.2 3,-10.3 C110.70000152587892,53.274390411376956 110.0000015258789,50.97439041137696 108.0000015258789,47.87439041137695 " id="svg_6"/>
	<path class="st0" d="M25.000001525878908,65.77439041137696 L25.000001525878908,65.77439041137696 c-0.1,-0.1 -2.1,-1.1 -3.1,-2.2 c-0.7000000000000001,-0.8 -1.3,-1.6 0,-2.8 c0.4,-0.30000000000000004 1,-0.6000000000000001 1.9,-1 C24.200001525878903,61.97439041137696 25.000001525878908,65.77439041137696 25.000001525878908,65.77439041137696 M33.900001525878906,63.07439041137695 c0.6000000000000001,-0.8 1.4,-2.4 0.30000000000000004,-4.8 c-1.1,-2.4 -3.5,-3.7 -6.9,-3.4 c-0.8,-3.4 -3.2,-13.5 -3.3,-13.6 c0,-0.2 -0.2,-0.6000000000000001 -0.5,-0.8 c-0.30000000000000004,-0.2 -0.7000000000000001,-0.2 -1,-0.2 c-0.4,0 -1.5,0.1 -2,0.6000000000000001 c-0.6000000000000001,0.5 -0.9,1 -1.2,1.8 c-0.6000000000000001,1.4 -1.7000000000000002,3.7 -3,6.6 c-0.9,1.9 -1.9,4.1 -3.1,6.6 c-1.4,3 -5.1,10.2 -5.5,10.9 c-0.30000000000000004,0.5 -0.6000000000000001,0.9 -1.1,1.2 c-0.5,0.30000000000000004 -1.8,0.4 -2.5,0.1 c-1.1,-0.5 -1.5,-1.1 -1.8,-2 c-0.2,-0.5 -0.1,-1.2 -0.1,-1.3 c0.1,-1.3 1,-2.2 1.1,-2.3 c0.1,-0.1 0.1,-0.1 0.1,-0.2 c0,-0.1 -0.1,-0.1 -0.2,0 c-1.4,0.4 -3,1.9 -3.2,3.8 c0,0.1 0,0.30000000000000004 0,0.4 c0,1.8 1.2,3.8 3,4.8 c1,0.6000000000000001 4.8,2.1 7.1,-0.30000000000000004 c0.8,-0.8 1.6,-2.2 2.7,-4.5 c1.1,-2.2 3.8,-7.7 4.2,-8.7 c0.5,-0.9 3,-6.3 4.3,-8.9 l0.2,-0.4 l1.5,7.3 c-3.2,1.2 -4.5,3 -5.1,5.5 c-0.7000000000000001,2.7 1.9,6.7 8.4,9.7 c0.6000000000000001,0.30000000000000004 3.4,1.3 3.9,1.4 c1,0.1 1.1,-0.30000000000000004 1.1,-0.6000000000000001 c0.1,-0.30000000000000004 -0.1,-1.2 -0.30000000000000004,-1.8 c-0.2,-0.8 -2.1,-8.1 -2.8,-11.2 c1.9,-0.1 3.4,0.2 4.3,1.4 c0.8,1 0.9,2 0.9,2.6 c0,0.4 0,0.4 0,0.4 C33.60000152587891,63.47439041137696 33.7000015258789,63.37439041137695 33.900001525878906,63.07439041137695 " id="svg_7"/>
	<path class="st0" d="M59.400001525878906,53.87439041137695 c0.4,-0.4 1.2,-1.3 1.5,-1.7000000000000002 c0.1,-0.1 0.1,-0.2 0.2,-0.2 c0.1,0 0.1,0.1 0.30000000000000004,0.1 c0.5,0.4 1.4,1.1 1.7000000000000002,1.4 c0.2,0.2 0.9,0.9 1,2.2 c0,0.30000000000000004 0,0.6000000000000001 -0.1,0.9 c-0.2,1 -0.6000000000000001,1.9 -0.9,2.3 c0,0.1 -0.1,0.2 -0.2,0.2 c-0.1,0 -0.1,-0.2 -0.1,-0.30000000000000004 c0,-0.1 0,-0.2 0,-0.30000000000000004 c-0.1,-0.6000000000000001 -0.2,-1.4 -0.8,-2.1 c-0.6000000000000001,-0.6000000000000001 -1.8,-1.5 -2.5,-2 c-0.1,-0.1 -0.2,-0.1 -0.2,-0.2 C59.2000015258789,54.07439041137695 59.30000152587891,54.07439041137695 59.400001525878906,53.87439041137695 " id="svg_8"/>
	<path class="st0" d="M135.70000152587892,62.17439041137695 c0.1,-0.1 0.1,-0.2 0,-0.30000000000000004 c-0.4,-0.4 -1.6,-1.6 -2.1,-2 c-0.1,-0.1 -0.2,-0.1 -0.30000000000000004,0 c-0.4,0.4 -1.7000000000000002,1.7000000000000002 -2.1,2.1 c-0.1,0.1 -0.1,0.2 0,0.30000000000000004 c0.4,0.4 1.6,1.6 2.1,2.1 c0.1,0.1 0.2,0.1 0.30000000000000004,0 C134.1000015258789,63.774390411376956 135.3000015258789,62.57439041137695 135.70000152587892,62.17439041137695 " id="svg_9"/>
</g><path class="st1" d="M249.50000152587893,33.47439041137695 c-1.5,-1.6 -6.2,0.7000000000000001 -9.2,4.1 c-2.7,3 -4.3,7.4 -4.3,7.4 c0.7000000000000001,-0.1 5.4,-2.4 9.5,-5.6 C247.1000015258789,38.07439041137695 251.00000152587893,34.97439041137695 249.50000152587893,33.47439041137695 M247.30000152587888,83.47439041137696 c-5.1,1.9 -13.3,3.4 -20.8,1.4 c-1.7000000000000002,-0.4 -2.8,-0.9 -3.8,-1.3 c8.8,7.7 17.3,11.1 22.7,8.1 c7,-3.8 13.2,-10.5 17.7,-18.5 C258.7000015258789,78.37439041137695 252.50000152587893,81.57439041137695 247.30000152587888,83.47439041137696 M240.6000015258789,55.47439041137696 c-1.6,-0.4 -3.6,4.7 -1.5,5.2 c0.2,0.1 0.5,0.1 0.9,0.1 l0,0 c1,-0.1 2,-0.30000000000000004 3,-0.6000000000000001 C242.70000152587892,57.07439041137695 241.9000015258789,55.774390411376956 240.6000015258789,55.47439041137696 M227.3000015258789,34.37439041137695 c2.3,1.2 1.9,4.5 2.8,7.3 c0.8,2.9 3.2,3.1 3.2,3.1 s4.8,-9.3 0.7000000000000001,-16.8 c-4.1,-7.5 -10.9,-4.9 -12.6,-4.1 c-2.3,1.1 -11.1,6.8 -15.5,18.7 c-4.4,11.8 1.9,15.9 5.8,16.5 c3.9,0.7000000000000001 9.9,-3.3 10.1,-5.3 c0.1,-1.1 -0.7000000000000001,-1.7000000000000002 -1.9,-2 c-1.2,-0.30000000000000004 -4.3,0.4 -6.3,-2 c-2.5,-3 1.8,-9.5 4.2,-11.8 C220.1000015258789,35.674390411376955 223.8000015258789,32.57439041137695 227.3000015258789,34.37439041137695 M248.9000015258789,66.37439041137695 c0.5,-0.6000000000000001 2.2,-2.2 2.8,-2.7 c0.1,-0.1 0.30000000000000004,-0.1 0.4,0 c0.6000000000000001,0.6000000000000001 2.2,2.1 2.7,2.7 c0.1,0.1 0.1,0.30000000000000004 0,0.4 c-0.6000000000000001,0.6000000000000001 -2.2,2.2 -2.7,2.7 c-0.1,0.1 -0.30000000000000004,0.1 -0.4,0 c-0.6000000000000001,-0.6000000000000001 -2.2,-2.2 -2.8,-2.7 C248.9000015258789,66.67439041137695 248.9000015258789,66.47439041137696 248.9000015258789,66.37439041137695 M232.9000015258789,56.274390411376956 c-0.6000000000000001,0.6000000000000001 -2.2,2.2 -2.7,2.7 c-0.1,0.1 -0.30000000000000004,0.1 -0.4,0 c-0.6000000000000001,-0.6000000000000001 -2.2,-2.2 -2.8,-2.7 c-0.1,-0.1 -0.1,-0.30000000000000004 0,-0.4 c0.5,-0.6000000000000001 2.2,-2.2 2.8,-2.7 c0.1,-0.1 0.30000000000000004,-0.1 0.4,0 c0.6000000000000001,0.6000000000000001 2.2,2.1 2.7,2.7 C233.00000152587893,56.07439041137695 233.00000152587893,56.17439041137695 232.9000015258789,56.274390411376956 M249.4000015258789,22.47439041137695 c-0.6000000000000001,0.6000000000000001 -2.2,2.2 -2.7,2.7 c-0.1,0.1 -0.30000000000000004,0.1 -0.4,0 c-0.6000000000000001,-0.6000000000000001 -2.2,-2.2 -2.8,-2.7 c-0.1,-0.1 -0.1,-0.30000000000000004 0,-0.4 c0.5,-0.6000000000000001 2.2,-2.2 2.8,-2.7 c0.1,-0.1 0.30000000000000004,-0.1 0.4,0 c0.6000000000000001,0.6000000000000001 2.2,2.1 2.7,2.7 C249.50000152587893,22.174390411376955 249.50000152587893,22.37439041137695 249.4000015258789,22.47439041137695 M246.00000152587893,78.97439041137696 c11.2,-4.1 14.7,-10.2 17.2,-14.4 c5.3,-9 5.5,-19.1 5,-22 l0,-0.1 c-0.30000000000000004,-2.5 -1,-4.9 -1.5,-4.9 c-2.3,-0.1 -5.5,16.4 -7.3,25.6 c-0.2,0.9 -0.30000000000000004,1.9 -0.8,2.8 c-0.4,0.8 -0.7000000000000001,1.1 -1,1.4 c-0.30000000000000004,0.4 -0.8,0.7000000000000001 -0.7000000000000001,0 c4.2,-22.3 6.9,-34.2 9.3,-39.1 c0.30000000000000004,-0.5 0.6000000000000001,-0.8 0.9,-1 c-0.5,-1.1 -1,-2.1 -1.5,-3.1 c-13.2,-23.8 -48.2,-29.8 -67.7,-19 c-8.5,4.7 -7.7,27 3.6,49.7 c-1.1,-6.3 0.4,-12 3.5,-18.5 c4.3,-8.8 17.8,-21.6 28,-17.6 c8.7,3.3 5.4,17.1 5.4,17.1 s6.1,-8.1 10.9,-8.3 c2.5,-0.1 6.9,1.7000000000000002 1.7000000000000002,10.3 c-6.1,10 -16.4,14.5 -20,12.4 c-3.2,-1.8 -3.2,-5.4 -3.4,-6.4 c-0.2,-1 -0.7000000000000001,-4.1 -3.7,-4.4 c-2.9,-0.2 -8.2,3.9 -7.6,5.7 c0.6000000000000001,1.6 4.5,0.30000000000000004 6.3,1.4 c1.8,1.1 2.5,2.8 1.8,5.8 c-1.9,8.9 -9.3,14.2 -14.4,12.9 c-1.2,-0.30000000000000004 -2.4,-0.8 -3.5,-1.4 c1.6,2.5 3.2,4.9 4.9,7.2 l1.5,-2.6 c0,-0.1 0.1,-0.1 0.2,-0.1 c3,0.1 6.6,-1.1 8.3,-2.4 c-1.3,4.3 -3.1,7.1 -9,6.5 c0.1,0.1 0.1,0.2 0.2,0.2 c1.1,0.6000000000000001 2.4,1.1 3.9,1.7000000000000002 c8.8,3.4 16.7,-1.1 18.1,-2 c1.1,-0.7000000000000001 5.6,-3.4 7.5,-6.9 c-0.7000000000000001,0.1 -1.5,0.2 -2.3,0.1 c-0.6000000000000001,0 -1.1,-0.1 -1.3,-0.1 c-0.9,0 -5.5,-0.8 -2.5,-7.8 c0.5,-1.2 2.6,-6.1 5.5,-5 c0.9,0.30000000000000004 3,1.1 3.7,4.5 c0.1,0.6000000000000001 0.2,1.1 0.30000000000000004,1.7000000000000002 c2.7,-1.7000000000000002 4.9,-4.4 5.4,-7.4 c0.5,-2.9 -0.1,-4.3 -1,-4.5 c-1.1,-0.2 -3.1,5.3 -3.4,5.1 c-0.30000000000000004,-0.2 0,-0.9 0.2,-1.7000000000000002 c1.9,-6.4 4.7,-8.8 5.6,-8.8 c0.9,0 2.2,2.9 2.2,6.8 c0,6.2 -3.6,13.3 -9.3,16 c-0.5,2.9 -1.6,5.4 -3,7.1 c-3.8,4.8 -12,9.8 -22.4,7.5 c-0.9,-0.2 -1.7000000000000002,-0.4 -2.5,-0.7000000000000001 c0.9,1 1.8,1.9 2.8,2.8 c0.4,0.1 1,0.2 2.3,0.4 C226.8000015258789,82.27439041137696 236.30000152587888,82.47439041137696 246.00000152587893,78.97439041137696 " id="svg_10"/><image id="svg_11" x="23.400001525878906" y="49.07439041137695" width="44" height="5" xlink:href="logo/vector_paint_icon256.png" style="color: rgb(0, 0, 0);" class=""/></g></svg>