<svg id="Layer_1" data-name="Layer 1" xmlns="http://www.w3.org/2000/svg" viewBox="0 0 29.82 29.82"><defs><style>.cls-1{opacity:0.8;isolation:isolate;}.cls-2{fill:#fff;}</style></defs><title>Attraction-tab-arrow-right</title><circle class="cls-1" cx="14.91" cy="14.91" r="14.91"/><path class="cls-2" d="M14.74,10.44a.31.31,0,0,1,.19-.06.25.25,0,0,1,.17.06l4.46,4.48a.2.2,0,0,1,.08.17.19.19,0,0,1-.08.17L15.1,19.74a.22.22,0,0,1-.17.07.26.26,0,0,1-.19-.07l-.15-.16a.25.25,0,0,1-.06-.17.31.31,0,0,1,.06-.19l3.79-3.77h-8a.24.24,0,0,1-.25-.25V15a.24.24,0,0,1,.07-.18.25.25,0,0,1,.18-.08h8L14.59,11a.33.33,0,0,1-.06-.19.24.24,0,0,1,.06-.17Z" transform="translate(0 0)"/></svg>