<svg id="Layer_1" data-name="Layer 1" xmlns="http://www.w3.org/2000/svg" viewBox="0 0 29.82 29.82"><defs><style>.cls-1{opacity:0.8;isolation:isolate;}.cls-2{fill:#fff;}</style></defs><title>Attraction-tab-arrow-left</title><circle class="cls-1" cx="14.91" cy="14.91" r="14.91"/><path class="cls-2" d="M15.23,10.61a.24.24,0,0,1,.06.17.33.33,0,0,1-.06.19l-3.79,3.76h8a.27.27,0,0,1,.26.26v.21a.25.25,0,0,1-.08.18.24.24,0,0,1-.18.07h-8l3.79,3.77a.31.31,0,0,1,.06.19.25.25,0,0,1-.06.17l-.15.16a.28.28,0,0,1-.19.07.21.21,0,0,1-.17-.07l-4.46-4.48a.2.2,0,0,1-.09-.17.21.21,0,0,1,.09-.17l4.46-4.48a.24.24,0,0,1,.17-.06.33.33,0,0,1,.19.06Z" transform="translate(0 0)"/></svg>