<svg xmlns="http://www.w3.org/2000/svg" viewBox="0 0 528.71 132.29"><defs><style>.cls-1{fill:#fff;}</style></defs><g id="Layer_2" data-name="Layer 2"><g id="Layer_1-2" data-name="Layer 1"><path class="cls-1" d="M167.33,36.33c-2.79-.95-5.33-1.91-7.61-2.9a23,23,0,0,1-5.89-3.56,14.7,14.7,0,0,1-3.86-5,16.39,16.39,0,0,1-1.38-7.09,15.55,15.55,0,0,1,6.23-12.92Q161.06,0,172.27,0a47.68,47.68,0,0,1,7.61.57,23.21,23.21,0,0,1,6,1.77,10.46,10.46,0,0,1,4,3,6.89,6.89,0,0,1,1.42,4.33,7.62,7.62,0,0,1-1.14,4.23,11.77,11.77,0,0,1-2.76,3,21.42,21.42,0,0,0-5.61-2.33,28.32,28.32,0,0,0-7.7-1c-2.85,0-5,.39-6.28,1.19a3.45,3.45,0,0,0-2,3A2.77,2.77,0,0,0,167,20.12a12.52,12.52,0,0,0,3.71,1.66l5,1.62q8.94,2.85,13.74,7.28t4.81,12A15.83,15.83,0,0,1,188,55.78q-6.37,5-18.74,5a43.18,43.18,0,0,1-8.13-.71A25.8,25.8,0,0,1,154.54,58a12.22,12.22,0,0,1-4.38-3.42,7.59,7.59,0,0,1-1.57-4.71,7.13,7.13,0,0,1,1.62-4.71,12.55,12.55,0,0,1,3.52-3,25.9,25.9,0,0,0,6.51,3.62,22.84,22.84,0,0,0,8.42,1.52c3.1,0,5.29-.48,6.56-1.42a4.12,4.12,0,0,0,1.9-3.33,3.26,3.26,0,0,0-1.52-2.91,19.18,19.18,0,0,0-4.28-2Z"/><path class="cls-1" d="M199.47,14.94a12.5,12.5,0,0,1-1.23-2.86,12.53,12.53,0,0,1-.58-3.8q0-3.72,1.67-5.32a5.91,5.91,0,0,1,4.33-1.63h41.46a12.87,12.87,0,0,1,1.24,2.86,12.53,12.53,0,0,1,.57,3.8c0,2.47-.56,4.25-1.66,5.33a6,6,0,0,1-4.34,1.62H230.38V58.87a24.71,24.71,0,0,1-3.28.57,34.89,34.89,0,0,1-4.42.29,19.06,19.06,0,0,1-3.85-.34A7,7,0,0,1,216,58.21a5.16,5.16,0,0,1-1.71-2.38,11.64,11.64,0,0,1-.57-4V14.94Z"/><path class="cls-1" d="M263.48,3.33a20.43,20.43,0,0,1,4.89-1.81A26.58,26.58,0,0,1,275,.67a23.79,23.79,0,0,1,8.42,1.38,7.33,7.33,0,0,1,4.71,4.33q1.71,4.94,3.7,11.5t4,13.56q2,7,3.9,13.79t3.33,12a7.71,7.71,0,0,1-3.43,2.13,16.24,16.24,0,0,1-5.42.81,16.85,16.85,0,0,1-3.85-.38,6.77,6.77,0,0,1-2.57-1.14,5.54,5.54,0,0,1-1.61-2,16.64,16.64,0,0,1-1.1-2.85l-1.71-6.56H266.14c-.51,1.91-1,3.87-1.52,5.9s-1,4-1.53,5.9a24.81,24.81,0,0,1-2.8.8,16.62,16.62,0,0,1-3.57.33q-4.85,0-7.18-1.66a5.36,5.36,0,0,1-2.33-4.61,9.72,9.72,0,0,1,.38-2.66c.26-.89.54-1.94.86-3.15q.66-2.57,1.85-6.37t2.62-8.22q1.43-4.43,3-9.09c1.08-3.09,2.09-6,3-8.79s1.81-5.22,2.61-7.37S263,4.47,263.48,3.33ZM274.89,15.6c-.89,2.66-1.89,5.63-3,8.89s-2.11,6.58-3,9.94h11.79q-1.33-5.14-2.71-10t-2.52-8.79Z"/><path class="cls-1" d="M336.8,58.87a24.56,24.56,0,0,1-3.23.57,33.22,33.22,0,0,1-4.28.29q-4.38,0-6.57-1.48c-1.45-1-2.18-3-2.18-6.23V39.18q-2.39-3.51-5.14-7.79T310,22.64q-2.67-4.47-4.94-8.8a78.22,78.22,0,0,1-3.71-7.94,13,13,0,0,1,3.37-3.14A9.33,9.33,0,0,1,310,1.33a10.82,10.82,0,0,1,6,1.53c1.55,1,3,2.91,4.42,5.7l7.89,15.88h.58q1.32-2.94,2.33-5.37c.66-1.61,1.31-3.24,1.95-4.85s1.29-3.29,2-5,1.49-3.75,2.38-6a17,17,0,0,1,3.8-1.33,17.94,17.94,0,0,1,4-.48A9.1,9.1,0,0,1,351,3.1a6.19,6.19,0,0,1,2.33,5.27,10,10,0,0,1-.48,2.76,30.16,30.16,0,0,1-2.18,4.9q-1.72,3.28-5,8.89T336.8,39.56Z"/><path class="cls-1" d="M180.36,84.54q-7.32,0-11.23,4.48t-3.89,12.64q0,8.28,4.32,12.75t11.65,4.47a18.34,18.34,0,0,0,6.61-1,45.43,45.43,0,0,0,5.19-2.38,9.55,9.55,0,0,1,2.51,3.18,9.69,9.69,0,0,1,.91,4.33c0,2.6-1.44,4.81-4.33,6.61s-7.28,2.71-13.17,2.71a39,39,0,0,1-12-1.81,26.75,26.75,0,0,1-9.8-5.56,26.22,26.22,0,0,1-6.61-9.51,35.44,35.44,0,0,1-2.42-13.75,34.21,34.21,0,0,1,2.33-13.07A27.68,27.68,0,0,1,156.82,79a26.75,26.75,0,0,1,9.46-5.89,33.35,33.35,0,0,1,11.6-2c5.84,0,10.35,1,13.56,2.85s4.8,4.35,4.8,7.33A7.36,7.36,0,0,1,195,85.6a10,10,0,0,1-2.85,2.84,31.44,31.44,0,0,0-5.28-2.75A17.2,17.2,0,0,0,180.36,84.54Z"/><path class="cls-1" d="M256.34,109.28a24,24,0,0,1-1.76,9.36,19.63,19.63,0,0,1-5.09,7.23,22.85,22.85,0,0,1-8.08,4.61,36.66,36.66,0,0,1-21.49,0,22.85,22.85,0,0,1-8.08-4.61,19.63,19.63,0,0,1-5.09-7.23,24,24,0,0,1-1.76-9.36V73c.7-.13,1.81-.31,3.33-.53a32.09,32.09,0,0,1,4.37-.33,20.77,20.77,0,0,1,3.85.33,6.72,6.72,0,0,1,2.81,1.2A5.1,5.1,0,0,1,221.06,76a11.76,11.76,0,0,1,.57,4v29a9.75,9.75,0,0,0,2.52,7.14,9.61,9.61,0,0,0,13.08,0A9.85,9.85,0,0,0,239.7,109V73c.7-.13,1.81-.31,3.33-.53a32.09,32.09,0,0,1,4.37-.33,21,21,0,0,1,3.86.33,6.73,6.73,0,0,1,2.8,1.2A5.1,5.1,0,0,1,255.77,76a11.76,11.76,0,0,1,.57,4Z"/><path class="cls-1" d="M285,111.94V130.2a25.08,25.08,0,0,1-3.28.56,33.31,33.31,0,0,1-4.43.3,19.89,19.89,0,0,1-3.85-.34,6.45,6.45,0,0,1-2.76-1.19,5.27,5.27,0,0,1-1.66-2.37,11.7,11.7,0,0,1-.57-4V78.37a4.22,4.22,0,0,1,1.09-3.1,7.88,7.88,0,0,1,3-1.75A36.35,36.35,0,0,1,280,71.85a75.13,75.13,0,0,1,9.13-.52q13.13,0,19.78,5.52t6.66,14.92a16.78,16.78,0,0,1-3,10.09,21.82,21.82,0,0,1-7.23,6.46q3.42,4.67,6.75,8.75a56.64,56.64,0,0,1,5.23,7.42,8.93,8.93,0,0,1-3.47,5.09,9.68,9.68,0,0,1-5.66,1.76,12,12,0,0,1-3.61-.48,8.68,8.68,0,0,1-2.67-1.33,11.17,11.17,0,0,1-2.09-2.09,27,27,0,0,1-1.8-2.67l-8-12.83Zm6-12.65a8.31,8.31,0,0,0,5.71-1.85A7,7,0,0,0,298.76,92a6.61,6.61,0,0,0-2.33-5.48c-1.56-1.23-4-1.85-7.38-1.85a22.48,22.48,0,0,0-2.28.1c-.57.07-1.2.16-1.9.28V99.29Z"/><path class="cls-1" d="M343,130.2a25.08,25.08,0,0,1-3.28.56,33.27,33.27,0,0,1-4.42.3,19.92,19.92,0,0,1-3.86-.34,6.79,6.79,0,0,1-2.8-1.19,5.13,5.13,0,0,1-1.71-2.37,11.67,11.67,0,0,1-.58-4V73c.7-.13,1.81-.31,3.34-.53a32.09,32.09,0,0,1,4.37-.33,20.77,20.77,0,0,1,3.85.33,6.62,6.62,0,0,1,2.8,1.2A5.05,5.05,0,0,1,342.41,76a11.76,11.76,0,0,1,.57,4Z"/><path class="cls-1" d="M352.49,101.66a34.62,34.62,0,0,1,2.32-13.12A27.24,27.24,0,0,1,361.19,79a26.94,26.94,0,0,1,9.51-5.85,36,36,0,0,1,23.68,0A27.61,27.61,0,0,1,403.94,79a27.06,27.06,0,0,1,6.42,9.55,34.62,34.62,0,0,1,2.33,13.12,35.55,35.55,0,0,1-2.29,13.18,26.7,26.7,0,0,1-6.32,9.61,27.1,27.1,0,0,1-9.56,5.84,35,35,0,0,1-12,2,34,34,0,0,1-12-2,26.62,26.62,0,0,1-9.51-5.94,27.38,27.38,0,0,1-6.28-9.6A35,35,0,0,1,352.49,101.66Zm17.11,0q0,8.67,3.52,12.94a12.61,12.61,0,0,0,18.93,0q3.51-4.27,3.52-12.94T392.1,88.83a11.56,11.56,0,0,0-9.47-4.29,11.75,11.75,0,0,0-9.46,4.25C370.79,91.6,369.6,95.9,369.6,101.66Z"/><path class="cls-1" d="M473.27,109.28a24,24,0,0,1-1.77,9.36,19.73,19.73,0,0,1-5.08,7.23,23,23,0,0,1-8.09,4.61,36.66,36.66,0,0,1-21.49,0,22.85,22.85,0,0,1-8.08-4.61,19.75,19.75,0,0,1-5.09-7.23,24.16,24.16,0,0,1-1.76-9.36V73c.7-.13,1.81-.31,3.33-.53a32.09,32.09,0,0,1,4.37-.33,20.89,20.89,0,0,1,3.86.33,6.73,6.73,0,0,1,2.8,1.2A5.1,5.1,0,0,1,438,76a11.76,11.76,0,0,1,.57,4v29a9.75,9.75,0,0,0,2.52,7.14,9.61,9.61,0,0,0,13.08,0,9.85,9.85,0,0,0,2.47-7.14V73c.7-.13,1.81-.31,3.33-.53a32.11,32.11,0,0,1,4.38-.33,20.85,20.85,0,0,1,3.85.33,6.73,6.73,0,0,1,2.8,1.2A5.1,5.1,0,0,1,472.69,76a11.49,11.49,0,0,1,.58,4Z"/><path class="cls-1" d="M501.7,107.65c-2.79-.94-5.33-1.91-7.61-2.89a23.23,23.23,0,0,1-5.9-3.57,14.76,14.76,0,0,1-3.85-5A16.45,16.45,0,0,1,483,89.11a15.53,15.53,0,0,1,6.23-12.92q6.22-4.86,17.45-4.86a47.68,47.68,0,0,1,7.61.57,23.22,23.22,0,0,1,6,1.76,10.64,10.64,0,0,1,4,3A6.89,6.89,0,0,1,525.66,81a7.57,7.57,0,0,1-1.14,4.23,11.81,11.81,0,0,1-2.76,3,21.42,21.42,0,0,0-5.61-2.33,27.92,27.92,0,0,0-7.7-1c-2.85,0-4.95.4-6.28,1.19a3.47,3.47,0,0,0-2,3,2.8,2.8,0,0,0,1.24,2.34,12.8,12.8,0,0,0,3.71,1.65l5,1.63q8.94,2.85,13.74,7.27c3.2,3,4.81,7,4.81,12a15.85,15.85,0,0,1-6.37,13.08q-6.37,5-18.74,5a43.18,43.18,0,0,1-8.13-.71,25.41,25.41,0,0,1-6.56-2.09,12.11,12.11,0,0,1-4.38-3.42,7.48,7.48,0,0,1-1.57-4.7,7.14,7.14,0,0,1,1.62-4.72,12.34,12.34,0,0,1,3.52-3,25.71,25.71,0,0,0,6.51,3.61A22.64,22.64,0,0,0,503,118.6q4.65,0,6.56-1.43a4.11,4.11,0,0,0,1.9-3.32,3.25,3.25,0,0,0-1.52-2.91,19.83,19.83,0,0,0-4.28-2Z"/><polygon class="cls-1" points="53.17 61.07 59.72 78.08 76.32 71.91 70.1 54.9 53.17 61.07"/><path class="cls-1" d="M108.93,2.24H21A21,21,0,0,0,0,23.19v88a21,21,0,0,0,21,21h88a21,21,0,0,0,20.95-21v-88A21,21,0,0,0,108.93,2.24Zm6,70.8a8.89,8.89,0,0,1-5.69,4.54l-11,4.15,4.25,11.32A8.8,8.8,0,0,1,98.05,104a5.77,5.77,0,0,1-3.51,1,8.51,8.51,0,0,1-8.07-6.29L82.35,87.77,65.36,94l4.23,11.29a8.41,8.41,0,0,1-.31,6.67,9,9,0,0,1-4.1,4.22,5.78,5.78,0,0,1-3.53,1c-2.65,0-5.33-1.33-8-4l-.91-1.41-4.24-11.33-10.76,4a5.77,5.77,0,0,1-3.37.94,8.53,8.53,0,0,1-8.07-6.29,8,8,0,0,1,.44-6.24,9.07,9.07,0,0,1,4.75-4.52L43,84.13l-6.21-17L26,71.16a5.78,5.78,0,0,1-3.37.94,8.52,8.52,0,0,1-8.08-6.29,8.3,8.3,0,0,1,.31-6.36A8.49,8.49,0,0,1,20,55l11.19-4.2L26.93,39.46a8.85,8.85,0,0,1-.06-6.35,8.14,8.14,0,0,1,4.65-4.84,8.72,8.72,0,0,1,11.26,5l4.29,11.43,17-6.21-4.24-11.3c-1.5-4.5.24-8.79,4.48-11.36a8.9,8.9,0,0,1,11.84,4.75L80.42,32l11.32-4.25A8.72,8.72,0,0,1,97.9,44.09L86.46,48.38l6.21,17L104,61.14a8.2,8.2,0,0,1,6.35.16,9,9,0,0,1,4.83,4.89A8.46,8.46,0,0,1,114.94,73Z"/></g></g></svg>