<?xml version="1.0" encoding="utf-8"?>
<!-- Generator: Adobe Illustrator 21.1.0, SVG Export Plug-In . SVG Version: 6.00 Build 0)  -->
<svg version="1.1" id="icons" xmlns="http://www.w3.org/2000/svg" xmlns:xlink="http://www.w3.org/1999/xlink" x="0px" y="0px"
	 viewBox="0 0 97.6 97.6" style="enable-background:new 0 0 97.6 97.6;" xml:space="preserve">
<style type="text/css">
	.st0{fill:#FFFFFF;}
</style>
<g>
	<path class="st0" d="M64,24.7l10.3-0.1L53.7,45.8c-0.4,0.4-0.4,1,0,1.4c0.4,0.4,1,0.4,1.4,0L75.7,26l0.1,10.3
		c0,0.3,0.1,0.5,0.3,0.7c0.2,0.2,0.4,0.3,0.7,0.3c0.6,0,1-0.5,1-1l-0.2-12.7c0-0.6-0.5-1-1-1L64,22.7c-0.6,0-1,0.5-1,1
		C63,24.3,63.4,24.7,64,24.7z"/>
	<path class="st0" d="M65.5,40v30h-38V34h34c2-2,0,0,2-2h-38v40h42V38"/>
</g>
</svg>
